<?xml version="1.0" encoding="utf-8"?>
<!-- Generator: Adobe Illustrator 16.0.0, SVG Export Plug-In . SVG Version: 6.00 Build 0)  -->
<!DOCTYPE svg PUBLIC "-//W3C//DTD SVG 1.1//EN" "http://www.w3.org/Graphics/SVG/1.1/DTD/svg11.dtd">
<svg version="1.1" id="Layer_1" xmlns="http://www.w3.org/2000/svg" xmlns:xlink="http://www.w3.org/1999/xlink" x="0px" y="0px"
	 width="400px" height="300px" viewBox="0 0 400 300" enable-background="new 0 0 400 300" xml:space="preserve">
<g>
	<path fill="#E8F2FB" d="M35.417,248.457c0,0-31.416-44.556-12.567-86.955c18.85-42.399,54.665-32.34,104.931-75.458
		c61.024-52.346,103.875-55.222,158.34-32.339c30.789,12.936,35.814,66.116,84.822,99.174c44.184,29.803,8.171,80.491-15.079,88.395
		c-23.249,7.906-38.954,7.906-38.954,7.906L35.417,248.457z"/>
	<path fill="#A5DEF0" d="M222.46,152.665c-7.842,18.207-17.675,67.956-20.354,70.682c-2.682,2.727-18.173,13.289-20.854,18.398
		c-2.681,5.111-1.489,3.408-0.297,3.749c1.191,0.342,68.521,0.682,68.521,0.682s-7.746-52.815-8.638-53.154
		C239.941,192.681,222.46,152.665,222.46,152.665z"/>
	<path fill="#97CFE0" d="M211.311,245.931c12.366,0.098,25.415,0.176,32.597,0.216l-9.833-67.272
		c-5.246-11.631-11.614-26.209-11.614-26.209c-0.987,2.296-2.009,5.096-3.043,8.232c-1.02,50.529,5.344,64.69,0.563,73.694
		C216.251,241.616,212.848,244.76,211.311,245.931z"/>
	<path fill="#2F5C9B" d="M351.107,249.549H27.798c-1.377,0-2.493-1.277-2.493-2.854c0-1.574,1.116-2.852,2.493-2.852h323.309
		c1.378,0,2.494,1.277,2.494,2.852C353.602,248.271,352.485,249.549,351.107,249.549z"/>
	<path fill="#A5DEF0" d="M263.75,130.692c11.184,11.807,36.075,23.003,36.075,23.003s3.782,39.966,1.201,62.595
		c-2.579,22.631-1.146,27.222-1.146,27.222h-51.327c0,0-6.889-10.934-19.499-44.933c-8.028-21.645-6.594-45.914-6.594-45.914
		l31.255-16.069L263.75,130.692z"/>
	<path fill="#97CFE0" d="M248.553,243.512h51.327c0,0-1.433-4.591,1.146-27.222c2.126-18.632-0.063-49.021-0.903-59.171
		l-4.667-2.289c-11.719,3.862-18.472,23.854-20.458,43.391c-1.328,13.072-20.263,25.94-32.65,33.026
		C246.416,240.119,248.553,243.512,248.553,243.512z"/>
	<path fill="#2F5C9B" d="M235.971,89.671c-6.187,15.76,1.236,30.362,1.014,29.745c-0.226-0.614,9.363-26.61,9.363-26.61
		L235.971,89.671z"/>
	<path fill="#F09A5A" d="M259.415,101.325l7.847,32.804c0.222,0.926,0.033,1.913-0.495,2.658c-1.842,2.593-4.462,7.928-9.747,9.639
		c-1.028,0.331-2.295,0.421-3.319,0.425c-1.078,0.005-2.006-0.865-2.212-2.072l-5.258-31.115L259.415,101.325z"/>
	<path fill="#E3853E" d="M257.917,104.067l-2.868,1.345l-8.818,8.252l4.734,27.584C258.991,135.524,260.162,131.661,257.917,104.067
		z"/>
	<path fill="#F09A5A" d="M259.129,115.836c-1.739,10.791-8.798,18.09-15.771,16.3c-6.973-1.786-10.3-8.771-9.481-22.776
		c0.645-10.987,5.38-22.929,12.352-21.139C253.201,90.008,260.864,105.045,259.129,115.836z"/>
	<path fill="#A5DEF0" d="M299.825,153.695c10.386,2.683,12.313,26.808,15.69,52.251c0.39,2.927,2.384,27.716,2.384,27.716
		s0.199,4.543-3.773,6.815c-3.394,1.939-4.767,3.406-24.431,3.631c-18.885,0.219-43.233-0.678-43.233-0.678
		s-0.215-8.039,1.721-11.967c2.914-5.905,32.773-14.386,35.555-14.84c0.396-6.361-2.742-29.376,1.589-44.981
		c2.979-10.732,6.181-16.359,10.195-17.827C296.858,153.327,298.286,153.297,299.825,153.695z"/>
	<path fill="#97CFE0" d="M257.142,243.92c9.31,0.159,22.086,0.311,32.554,0.188c19.664-0.225,21.037-1.691,24.431-3.631
		c3.973-2.272,4.172-6.134,4.172-6.134s-2.009-26.376-2.383-29.307c-2.186-17.04-4.547-36.537-10.041-45.946
		c5.165,17.314,5.996,31.922,6.089,38.162c0.046,3.159-0.208,7.487-1.016,10.511c-0.892,3.351-3.177,5.454-6.752,4.316
		c-7.15-2.272-16.088,2.499-16.088,2.499s6.752-2.729,13.108-0.229c6.354,2.502,19.464,19.082,5.163,25.217
		C302.004,241.445,275.792,242.975,257.142,243.92z"/>
	<path fill="#97CFE0" d="M249.772,232.221c0,0,2.648-5.149,8.078-5.149c5.429,0,5.031,10.147,4.236,13.479
		c-0.794,3.333-3.973,3.483-3.973,3.483l-11.652-0.604L249.772,232.221z"/>
	<path fill="#78A0D4" d="M237.96,246.348h-73.458c-1.108,0-2.013-1.036-2.013-2.303v-0.664c0-1.267,0.905-2.303,2.013-2.303h73.458
		c1.107,0,2.015,1.036,2.015,2.303v0.664C239.975,245.312,239.067,246.348,237.96,246.348z"/>
	<path fill="#F09A5A" d="M248.314,232.827c-11.388-4.694-14.373-2.928-16.947-3.786c-6.355-2.12-7.945-0.303-12.051,12.57
		c-0.818,2.563,1.589,2.728,3.973,2.728c2.383,0,5.298-5.299,6.224-5.907c0.927-0.607,3.444-0.908,3.444-0.908s-0.795,0-1.987,2.726
		c-1.193,2.726-2.647,3.785-0.796,3.785c1.855,0,2.119-3.483,5.563-2.727c3.442,0.76,2.118,2.727,10.725,2.576
		c8.606-0.152,15.103,0,14.963-5.908c-0.132-5.604,0.41-8.406-4.235-9.39C253.614,227.829,248.314,232.827,248.314,232.827z"/>
	<path fill="#A86C49" d="M248.466,232.827c7.613-0.984,5.379,9.864,4.584,10.772c-0.794,0.909,4.239,0.32,4.239,0.32
		s2.365-4.353,0.38-9.35c-1.987-4.999-5.959-5.226-5.959-5.226l-3.377,2.119L248.466,232.827z"/>
	<path fill="#2F5C9B" d="M256.414,231.887c-0.098,1.342-2.094,2.246-4.461,2.021c-2.365-0.227-4.204-1.498-4.104-2.843
		c0.098-1.345,2.094-2.25,4.46-2.026C254.676,229.266,256.514,230.539,256.414,231.887z"/>
	<path fill="#406CAC" d="M255.81,231.213c-0.088,1.203-1.872,2.014-3.986,1.813c-2.113-0.204-3.756-1.341-3.669-2.541
		c0.089-1.203,1.875-2.012,3.985-1.81C254.255,228.876,255.898,230.015,255.81,231.213z"/>
	<path fill="#F0CEB5" d="M254.489,230.658c-0.063,0.866-1.349,1.448-2.869,1.303c-1.521-0.146-2.705-0.964-2.642-1.829
		c0.063-0.864,1.349-1.449,2.871-1.301C253.368,228.976,254.552,229.794,254.489,230.658z"/>
	<g>
		<path fill="#78A0D4" d="M161.815,229.705h-74c-3.893,0-7.23-3.225-7.933-7.664l-9.651-60.931
			c-0.911-5.748,2.895-11.042,7.934-11.042h73.999c3.893,0,7.231,3.223,7.934,7.663l9.652,60.931
			C170.659,224.407,166.854,229.705,161.815,229.705z"/>
		<path fill="#ACCBEB" d="M165.272,218.89l-9.85-59.669c-0.718-4.349-4.124-7.506-8.096-7.506H72.125
			c-1.579,2.095-2.369,4.967-1.888,7.958l9.991,62.208c0.728,4.532,4.182,7.824,8.211,7.824h68.738
			C162.318,229.705,166.201,224.518,165.272,218.89z"/>
		<path fill="#78A0D4" d="M147.429,237.864h-14.048c-2.505,0-4.535-2.552-4.535-5.699v-29.377c0-5.011-3.233-9.071-7.22-9.071
			h-7.339c-3.987,0-7.22,4.061-7.22,9.071v32.897c0,5.626,3.644,10.178,8.122,10.145l38.338-0.303
			C153.527,241.294,150.797,237.864,147.429,237.864z"/>
		<path fill="#ACCBEB" d="M107.625,203.448v32.394c0,5.274,3.574,9.585,8.096,9.958l37.416-0.268
			c-0.003-0.703-2.953-1.979-6.597-1.979h-15.196c-2.711,0-4.907-2.514-4.907-5.611v-34.493c0-4.937-3.497-8.935-7.81-8.935h-3.192
			C111.123,194.514,107.625,198.512,107.625,203.448z"/>
	</g>
	<path fill="#F09A5A" d="M185.943,234.133c5.654-3.596,12.566-2.396,15.08,1.197c2.512,3.591,2.931,5.987-2.725,5.987
		c-5.653,0-16.962,0.479-18.848,0.239C177.566,241.317,185.943,234.133,185.943,234.133z"/>
	<path fill="#F09A5A" d="M194.32,231.975c6.073-1.676,10.223,2.367,15.288,6.229c4.396,3.354,5.282,6.612,0.419,3.832
		c-7.12-4.072-11.31-4.55-11.31-4.55L194.32,231.975z"/>
	<path fill="#F09A5A" d="M188.788,234.109c-3.067,0-5.744-1.119-7.909-0.911c-2.166,0.207-9.021,8.253-7.938,8.873
		c0.077,0.045,0.162,0.086,0.253,0.121c1.627,0.689,3.464-0.072,4.381-1.757c0.971-1.781,2.549-3.855,4.386-3.112
		c3.066,1.238,6.286,1.12,6.286,1.12L188.788,234.109z"/>
	<path fill="#F7AA70" d="M186.99,242.755c-3.141-1.438,1.885-13.412,3.56-13.412c1.676,0,7.959,5.748,7.959,5.748
		s-1.479,0.952-6.493-0.958c-1.257-0.48-2.304,7.663-3.77,8.622C186.781,243.712,186.99,242.755,186.99,242.755z"/>
	<path fill="#2F5C9B" d="M233.872,115.667c-0.291,13.189,3.639,15.419,6.386,17.208c2.749,1.791,14.586-1.167,16.323-4.428
		c4.447-8.345,0.704-16.126,1.699-16.009c0.993,0.119,1.903,3.367,4.496,7.583c0.24,0.392,1.926,2.998,2.014,2.131
		c1.204-11.811,6.579-15.478,5.3-27.421c-0.943-8.806-5.83-8.108-5.83-8.108s-3.153-7.367-12.967-6.531
		c-6.577,0.561-12.438,3.492-19.216,5.486c-6.778,1.995,8.02,19.567,16.811,13.148c8.793-6.421,4.452,7.721,5.839,8.817
		c1.387,1.096,0.666,0.146,1.304,7.383c0.634,7.235-7.399,11.96-9.702,12.581c-7.363,1.978-8.594,0.591-10.207-2.581
		C234.723,122.174,233.872,115.667,233.872,115.667z"/>
	<path fill="#F09A5A" d="M264.351,111.584c-0.845,3.324-2.909,5.471-4.61,4.796c-1.702-0.676-1.753-3.376-1.552-7.241
		c0.181-3.483,2.908-5.471,4.611-4.795C264.5,105.018,265.195,108.26,264.351,111.584z"/>
	<g>
		<g>
			<path fill="#BBE0F6" d="M103.455,102.661H40.596c-0.684,0-1.239-0.635-1.239-1.417V70.306c0-0.783,0.555-1.417,1.239-1.417
				h62.858c0.685,0,1.24,0.634,1.24,1.417v30.938C104.694,102.026,104.139,102.661,103.455,102.661z"/>
			<path fill="#FFFFFF" d="M101.907,101.076H42.145c-0.553,0-1-0.513-1-1.145V78.907c0-0.632,0.447-1.145,1-1.145h59.762
				c0.553,0,1,0.512,1,1.145v21.024C102.907,100.563,102.46,101.076,101.907,101.076z"/>
			<g>
				<path fill="#FFFFFF" d="M44.056,74.008h-1.45c-0.307,0-0.555-0.283-0.555-0.634v-1.366c0-0.351,0.248-0.634,0.555-0.634h1.45
					c0.306,0,0.555,0.284,0.555,0.634v1.366C44.61,73.725,44.362,74.008,44.056,74.008z"/>
				<path fill="#FFFFFF" d="M48.71,74.008h-1.451c-0.306,0-0.554-0.283-0.554-0.634v-1.366c0-0.351,0.248-0.634,0.554-0.634h1.451
					c0.306,0,0.555,0.284,0.555,0.634v1.366C49.265,73.725,49.016,74.008,48.71,74.008z"/>
				<path fill="#FFFFFF" d="M53.364,74.008h-1.45c-0.307,0-0.555-0.283-0.555-0.634v-1.366c0-0.351,0.248-0.634,0.555-0.634h1.45
					c0.306,0,0.555,0.284,0.555,0.634v1.366C53.918,73.725,53.67,74.008,53.364,74.008z"/>
			</g>
			<path fill="#BBE0F6" d="M100.394,82.872H67.725c-0.538,0-0.978-0.503-0.978-1.118c0-0.614,0.44-1.117,0.978-1.117h32.669
				c0.538,0,0.978,0.503,0.978,1.117C101.372,82.369,100.932,82.872,100.394,82.872z"/>
			<path fill="#BBE0F6" d="M75.822,100.117H43.153c-0.538,0-0.977-0.503-0.977-1.118c0-0.614,0.439-1.117,0.977-1.117h32.669
				c0.538,0,0.978,0.503,0.978,1.117C76.8,99.614,76.36,100.117,75.822,100.117z"/>
			<path fill="#BBE0F6" d="M81.84,100.117h-3.38c-0.184,0-0.334-0.171-0.334-0.382v-1.47c0-0.212,0.151-0.383,0.334-0.383h3.38
				c0.184,0,0.334,0.171,0.334,0.383v1.47C82.174,99.946,82.024,100.117,81.84,100.117z"/>
			<path fill="#BBE0F6" d="M86.937,100.117h-3.38c-0.184,0-0.334-0.171-0.334-0.382v-1.47c0-0.212,0.151-0.383,0.334-0.383h3.38
				c0.183,0,0.334,0.171,0.334,0.383v1.47C87.271,99.946,87.12,100.117,86.937,100.117z"/>
			<path fill="#BBE0F6" d="M100.708,87.742h-54.1c-0.365,0-0.663-0.341-0.663-0.759c0-0.417,0.298-0.758,0.663-0.758h54.1
				c0.365,0,0.664,0.341,0.664,0.758C101.372,87.401,101.073,87.742,100.708,87.742z"/>
			<path fill="#BBE0F6" d="M100.708,91.015h-54.1c-0.365,0-0.663-0.341-0.663-0.757c0-0.418,0.298-0.759,0.663-0.759h54.1
				c0.365,0,0.664,0.341,0.664,0.759C101.372,90.674,101.073,91.015,100.708,91.015z"/>
		</g>
		<g>
			<path fill="#A4C6E8" d="M118.218,126.373H55.36c-0.684,0-1.239-0.634-1.239-1.417V94.018c0-0.783,0.555-1.417,1.239-1.417h62.858
				c0.685,0,1.24,0.635,1.24,1.417v30.938C119.458,125.739,118.903,126.373,118.218,126.373z"/>
			<path fill="#FFFFFF" d="M116.67,124.788H56.908c-0.553,0-1-0.512-1-1.144v-21.025c0-0.632,0.448-1.145,1-1.145h59.762
				c0.553,0,1,0.512,1,1.145v21.025C117.671,124.275,117.224,124.788,116.67,124.788z"/>
			<g>
				<path fill="#FFFFFF" d="M58.819,97.721h-1.451c-0.306,0-0.554-0.284-0.554-0.634V95.72c0-0.35,0.248-0.634,0.554-0.634h1.451
					c0.307,0,0.554,0.284,0.554,0.634v1.367C59.374,97.437,59.126,97.721,58.819,97.721z"/>
				<path fill="#FFFFFF" d="M63.473,97.721h-1.45c-0.306,0-0.554-0.284-0.554-0.634V95.72c0-0.35,0.248-0.634,0.554-0.634h1.45
					c0.307,0,0.555,0.284,0.555,0.634v1.367C64.028,97.437,63.78,97.721,63.473,97.721z"/>
				<path fill="#FFFFFF" d="M68.127,97.721h-1.451c-0.306,0-0.555-0.284-0.555-0.634V95.72c0-0.35,0.249-0.634,0.555-0.634h1.451
					c0.306,0,0.554,0.284,0.554,0.634v1.367C68.682,97.437,68.434,97.721,68.127,97.721z"/>
			</g>
			<path fill="#A4C6E8" d="M115.159,106.583H82.488c-0.537,0-0.977-0.502-0.977-1.117c0-0.615,0.44-1.118,0.977-1.118h32.671
				c0.537,0,0.977,0.503,0.977,1.118C116.135,106.082,115.695,106.583,115.159,106.583z"/>
			<path fill="#A4C6E8" d="M90.586,123.83h-32.67c-0.538,0-0.978-0.503-0.978-1.118c0-0.615,0.44-1.118,0.978-1.118h32.67
				c0.537,0,0.978,0.502,0.978,1.118C91.564,123.327,91.123,123.83,90.586,123.83z"/>
			<path fill="#A4C6E8" d="M96.604,123.83h-3.381c-0.184,0-0.334-0.173-0.334-0.383v-1.47c0-0.211,0.151-0.382,0.334-0.382h3.381
				c0.184,0,0.333,0.171,0.333,0.382v1.47C96.938,123.657,96.788,123.83,96.604,123.83z"/>
			<path fill="#A4C6E8" d="M101.7,123.83h-3.38c-0.184,0-0.334-0.173-0.334-0.383v-1.47c0-0.211,0.15-0.382,0.334-0.382h3.38
				c0.185,0,0.334,0.171,0.334,0.382v1.47C102.034,123.657,101.884,123.83,101.7,123.83z"/>
			<path fill="#A4C6E8" d="M115.472,111.454H61.371c-0.363,0-0.663-0.342-0.663-0.759c0-0.416,0.299-0.758,0.663-0.758h54.102
				c0.365,0,0.663,0.342,0.663,0.758C116.135,111.112,115.837,111.454,115.472,111.454z"/>
			<path fill="#A4C6E8" d="M115.472,114.727H61.371c-0.363,0-0.663-0.34-0.663-0.758c0-0.418,0.299-0.759,0.663-0.759h54.102
				c0.365,0,0.663,0.341,0.663,0.759C116.135,114.387,115.837,114.727,115.472,114.727z"/>
		</g>
	</g>
	<g>
		<ellipse fill="#9DD199" cx="134.221" cy="118.11" rx="8.481" ry="9.7"/>
		<g>
			<path fill="#FFFFFF" d="M133.379,121.694c-0.008,0-0.017-0.001-0.024-0.001c-0.177-0.007-0.343-0.098-0.46-0.25l-2.303-2.995
				c-0.236-0.306-0.21-0.772,0.057-1.042c0.268-0.269,0.676-0.239,0.911,0.067l1.854,2.409l4.435-4.965
				c0.256-0.285,0.665-0.28,0.913,0.011c0.25,0.292,0.246,0.759-0.009,1.045l-4.921,5.508
				C133.71,121.619,133.548,121.694,133.379,121.694z"/>
		</g>
	</g>
	<g>
		<path fill="#A4C6E8" d="M197.043,73.049h-53.926c-1.382,0-2.513-1.294-2.513-2.874V48.139c0-1.581,1.131-2.874,2.513-2.874h53.926
			c1.382,0,2.512,1.293,2.512,2.874v22.037C199.555,71.755,198.425,73.049,197.043,73.049z"/>
		<path fill="#A4C6E8" d="M147.724,68.858v15.33l15.445-17.664C163.169,66.523,148.038,68.858,147.724,68.858z"/>
		<path fill="#FFFFFF" d="M194.375,70.295h-48.592c-1.172,0-2.131-1.096-2.131-2.437V50.456c0-1.339,0.959-2.436,2.131-2.436h48.592
			c1.172,0,2.131,1.097,2.131,2.436v17.403C196.507,69.199,195.547,70.295,194.375,70.295z"/>
		<path fill="#A4C6E8" d="M172.436,53.528h-23.875c-0.576,0-1.047-0.539-1.047-1.197c0-0.659,0.471-1.199,1.047-1.199h23.875
			c0.575,0,1.046,0.54,1.046,1.199C173.482,52.989,173.011,53.528,172.436,53.528z"/>
		<path fill="#A4C6E8" d="M192.377,58.107h-44.281c-0.32,0-0.582-0.299-0.582-0.666v-0.013c0-0.366,0.262-0.667,0.582-0.667h44.281
			c0.32,0,0.582,0.301,0.582,0.667v0.013C192.959,57.808,192.697,58.107,192.377,58.107z"/>
		<path fill="#A4C6E8" d="M192.377,60.714h-44.281c-0.32,0-0.582-0.3-0.582-0.666v-0.014c0-0.366,0.262-0.665,0.582-0.665h44.281
			c0.32,0,0.582,0.299,0.582,0.665v0.014C192.959,60.414,192.697,60.714,192.377,60.714z"/>
		<g>
			<path fill="#A4C6E8" d="M183.225,69.337h-1.45c-0.307,0-0.555-0.284-0.555-0.634v-1.366c0-0.351,0.249-0.635,0.555-0.635h1.45
				c0.307,0,0.555,0.285,0.555,0.635v1.366C183.779,69.053,183.531,69.337,183.225,69.337z"/>
			<path fill="#A4C6E8" d="M187.879,69.337h-1.45c-0.307,0-0.554-0.284-0.554-0.634v-1.366c0-0.351,0.247-0.635,0.554-0.635h1.45
				c0.307,0,0.555,0.285,0.555,0.635v1.366C188.434,69.053,188.186,69.337,187.879,69.337z"/>
			<path fill="#A4C6E8" d="M192.533,69.337h-1.451c-0.306,0-0.554-0.284-0.554-0.634v-1.366c0-0.351,0.249-0.635,0.554-0.635h1.451
				c0.306,0,0.554,0.285,0.554,0.635v1.366C193.087,69.053,192.839,69.337,192.533,69.337z"/>
		</g>
	</g>
</g>
</svg>
