<?xml version="1.0" encoding="utf-8"?>
<!-- Generator: Adobe Illustrator 16.0.0, SVG Export Plug-In . SVG Version: 6.00 Build 0)  -->
<!DOCTYPE svg PUBLIC "-//W3C//DTD SVG 1.1//EN" "http://www.w3.org/Graphics/SVG/1.1/DTD/svg11.dtd">
<svg version="1.1" id="Layer_1" xmlns="http://www.w3.org/2000/svg" xmlns:xlink="http://www.w3.org/1999/xlink" x="0px" y="0px"
	 width="400px" height="300px" viewBox="0 0 400 300" enable-background="new 0 0 400 300" xml:space="preserve">
<g>
	<path fill="#E8F2FB" d="M155.854,260.427C65.066,254.958-7.742,155.566,40.568,97.883c37.468-44.737,87.425,20.38,134.021-12.427
		c71.685-50.473,187.821-59.649,203.192,3.977c15.372,63.626-35.547,163.041-73.495,169.006S155.854,260.427,155.854,260.427z"/>
	<path fill="#303D60" d="M167.624,125.719c0.961,23.86,0.721,36.784-7.686,46.725c-8.406,9.941-31.944,7.456-31.944,7.456
		s-2.321,35.126-35.226,36.617s-37.628-43.742-11.849-55.341c24.54-11.041,32.344-14.249,40.831-41.589
		c7.753-24.975,31.944-20.214,37.708-9.775C165.222,120.25,167.624,125.719,167.624,125.719z"/>
	<path fill="#E3853E" d="M156.815,247.503c0,0,15.531,3.147,16.333,2.982c0.8-0.166,17.773-7.954,19.535-6.793
		c1.761,1.159,12.009,5.633,14.251,6.627c2.241,0.994-1.281,1.325-3.043,1.325s-11.849-4.308-12.969-3.479
		c-1.121,0.829,8.807,2.485,8.807,3.148s-26.58,6.959-28.182,6.959c-1.601,0-13.93-1.159-13.93-1.159L156.815,247.503z"/>
	<path fill="#6891C8" d="M143.926,159.727c8.366,1.699,13.29,10.86,14.891,18.886C160.418,186.637,143.926,159.727,143.926,159.727z
		"/>
	<g>
		<defs>
			<path id="SVGID_1_" d="M155.854,260.427C65.066,254.958-7.742,155.566,40.568,97.883c37.468-44.737,87.425,20.38,134.021-12.427
				c71.685-50.473,187.821-59.649,203.192,3.977c15.372,63.626-35.547,163.041-73.495,169.006S155.854,260.427,155.854,260.427z"/>
		</defs>
		<clipPath id="SVGID_2_">
			<use xlink:href="#SVGID_1_"  overflow="visible"/>
		</clipPath>
		<path clip-path="url(#SVGID_2_)" fill="#78A0D4" d="M129.916,153.556c0,0-16.092,11.184-24.738,16.652
			c-8.647,5.468,3.122,64.37,6.004,86.242c2.882,21.871,52.84,1.988,52.84,1.988s-3.363-18.392,0.96-47.968
			c3.097-21.186-8.246-34.465-14.731-43.66C133.884,143.602,129.916,153.556,129.916,153.556z"/>
		<path clip-path="url(#SVGID_2_)" fill="#6891C8" d="M114.063,170.456c18.494,23.362,24.746,27.729,20.176,43.494
			c-3.603,12.427-4.804,16.9-5.524,21.126c-0.721,4.225,34.346-2.735,34.346-2.735l-0.24,13.671c0,0-27.621,13.669-41.071,16.403
			c-13.45,2.733-21.856-0.497-21.856-0.497L114.063,170.456z"/>
	</g>
	<path fill="#2F5C9B" d="M345.648,264.03H126.833c-1.58,0-2.86-1.324-2.86-2.96c0-1.634,1.281-2.96,2.86-2.96h218.815
		c1.579,0,2.859,1.326,2.859,2.96C348.508,262.706,347.228,264.03,345.648,264.03z"/>
	<path fill="#F09A5A" d="M135.84,130.027l-8.326,25.517c0,0,9.126,25.6,16.813,19.883c2.624-1.952-0.96-17.397-0.96-17.397
		l5.604-20.712L135.84,130.027z"/>
	<path fill="#F09A5A" d="M109.26,169.462c-11.498,1.321-12.489,17.397-17.773,44.239c-5.284,26.842-3.696,44.56-1.201,47.968
		c6.004,8.202,73.495-20.38,81.901-20.132c5.802,0.172,0.961-9.941,0.961-9.941l-64.369,10.19c0,0,9.127-31.066,9.127-46.974
		C117.906,178.906,113.583,168.965,109.26,169.462z"/>
	<path fill="#F09A5A" d="M169.065,232.094c6.725-1.74,16.572-5.717,18.494-3.978c1.921,1.74,9.848,14.167,12.49,17.646
		c2.641,3.479-1.201,0.746-4.083-1.988c-2.882-2.734-5.284-4.226-5.284-4.226s-3.603,3.48-6.965,5.469
		c-3.363,1.988-4.563-1.988-10.328-2.982c-5.764-0.995-20.175,4.225-20.175,4.225L169.065,232.094z"/>
	<path fill="#78A0D4" d="M110.541,167.473c-7.046,0.332-12.49,6.463-14.411,15.907s-7.526,39.435-7.526,39.435
		s-1.121,0.829,10.568,2.982c11.688,2.154,21.295-0.331,21.295-0.331s2.402-17.067,1.762-28.831
		c-0.641-11.765-3.202-22.865-7.365-26.676C110.701,166.147,110.541,167.473,110.541,167.473z"/>
	<path fill="#E3853E" d="M143.366,158.029l5.604-20.712l-13.13-7.291l-2.006,6.146c-0.436,20.577,4.657,27.459,8.09,29.975
		c1.072,0.786,1.994,0.179,2.767-1.104C144.127,161.313,143.366,158.029,143.366,158.029z"/>
	<path fill="#F09A5A" d="M170.025,132.43c0,11.085-1.278,24.677-10.568,24.356c-14.411-0.497-23.492-12.089-23.492-23.175
		c0-11.084,7.535-20.07,16.83-20.07S170.025,121.344,170.025,132.43z"/>
	<path fill="#9BD5E8" d="M277.571,258.102h-54.022l22.22-50.587c0.649-1.477,2.071-2.424,3.639-2.424h49.025
		c1.136,0,1.891,1.213,1.421,2.282L277.571,258.102z"/>
	<path fill="#9BD5E8" d="M277.455,258.102h-99.664c0-3.593,2.815-6.505,6.287-6.505h93.377V258.102z"/>
	<path fill="#7CCEE7" d="M298.433,205.091h-43.204c-1.568,0-2.99,0.947-3.639,2.424l-22.221,50.587h48.202l22.282-50.729
		C300.323,206.304,299.568,205.091,298.433,205.091z"/>
	<path fill="#303D60" d="M154.173,109.688c10.208-0.745,16.252,8.906,18.014,17.356c1.271,6.097,0.641,7.29,0.641,7.29
		s-1.121,1.657-9.127,2.155c-8.006,0.496-8.967,0.331-8.967,0.331l-0.48-9.61l-2.401,9.279c0,0-1.281,1.821-6.245-0.663
		c-4.963-2.485-7.206-10.77-7.206-10.77s-1.121-5.469,2.722-9.114S154.173,109.688,154.173,109.688z"/>
	<path fill="#D54B42" d="M146.58,134.621c-0.979,6.705-6.151,11.456-11.552,10.612c-5.4-0.845-8.985-6.966-8.006-13.67
		c0.979-6.706,6.151-11.456,11.552-10.612C143.974,121.796,147.559,127.916,146.58,134.621z"/>
	<path fill="#F29993" d="M142.678,134.442c-0.907,6.208-5.153,10.692-9.484,10.015s-7.107-6.259-6.201-12.467
		c0.907-6.209,5.153-10.693,9.484-10.016C140.808,122.652,143.584,128.233,142.678,134.442z"/>
	<path fill="#F2E5DD" d="M136.059,133.056c-0.498,3.411-2.294,5.958-4.011,5.689c-1.717-0.269-2.705-3.251-2.207-6.662
		s2.294-5.958,4.011-5.691C135.568,126.662,136.557,129.644,136.059,133.056z"/>
	<path fill="#D54B42" d="M135.799,121.121c4.684-18.019,20.851-15.391,24.939-12.882c3.443,2.112,3.923,5.095,3.923,5.095
		s-4.443-3.728-12.009-2.361c-7.179,1.296-11.449,5.675-12.049,10.521C140.297,123.964,135.799,121.121,135.799,121.121z"/>
	<g>
		<path fill="#303D60" d="M63.946,179.289c-0.012,0-0.024,0-0.036-0.002c-0.204-0.02-0.353-0.206-0.333-0.417
			c0.421-4.557,2.622-9.241,6.197-13.189c4.043-4.465,9.797-7.981,16.639-10.172c15.246-4.879,28.547-11.084,36.905-37.696
			c0.063-0.201,0.272-0.311,0.467-0.246c0.194,0.065,0.301,0.282,0.238,0.482c-3.841,12.231-9.07,21.136-15.984,27.223
			c-6.098,5.369-12.968,8.268-21.407,10.969c-6.719,2.15-12.362,5.596-16.317,9.963c-3.465,3.825-5.596,8.351-6,12.738
			C64.296,179.141,64.135,179.289,63.946,179.289z"/>
	</g>
	<g>
		<path fill="#303D60" d="M70.831,160.896c-0.11,0-0.22-0.05-0.292-0.147c-0.126-0.167-0.096-0.408,0.065-0.538
			c0.065-0.051,6.58-5.213,16-7.361c18.084-4.123,30.225-15.376,35.111-32.541c0.058-0.204,0.263-0.319,0.459-0.26
			c0.197,0.06,0.309,0.273,0.251,0.476c-3.019,10.604-8.696,18.973-16.876,24.873c-5.267,3.799-11.588,6.559-18.786,8.199
			c-9.25,2.109-15.641,7.169-15.705,7.219C70.99,160.871,70.91,160.896,70.831,160.896z"/>
	</g>
	<g>
		<path fill="#A4C6E8" d="M302.691,155.396h-48.778c-0.456,0-0.692-0.384-0.526-0.857l9.895-28.129
			c0.167-0.473,0.672-0.856,1.129-0.856h48.776c0.458,0,0.693,0.384,0.527,0.856l-9.894,28.129
			C303.653,155.013,303.148,155.396,302.691,155.396z"/>
		<path fill="#FFFFFF" d="M302.103,154.081h-46.676c-0.427,0-0.647-0.357-0.491-0.8l9.01-25.613
			c0.154-0.442,0.627-0.801,1.054-0.801h46.675c0.427,0,0.646,0.358,0.492,0.801l-9.01,25.613
			C303.001,153.724,302.529,154.081,302.103,154.081z"/>
		<path fill="#A4C6E8" d="M301.26,152.413h-43.817c-0.479,0-0.728-0.402-0.552-0.899l7.765-22.078c0.175-0.497,0.706-0.9,1.186-0.9
			h43.817c0.48,0,0.728,0.403,0.553,0.9l-7.765,22.078C302.271,152.011,301.74,152.413,301.26,152.413z"/>
		<path fill="#FFFFFF" d="M291.557,140.475c-1.61,4.576-6.499,8.285-10.92,8.285c-4.422,0-6.701-3.709-5.093-8.285
			c1.61-4.575,6.499-8.285,10.921-8.285C290.886,132.189,293.166,135.899,291.557,140.475z"/>
		<path fill="#A4C6E8" d="M290.444,140.475c-1.386,3.94-5.596,7.134-9.403,7.134s-5.771-3.193-4.384-7.134
			c1.385-3.94,5.596-7.134,9.401-7.134C289.866,133.341,291.83,136.534,290.444,140.475z"/>
		<polygon fill="#FFFFFF" points="287.083,140.093 284.033,141.599 280.983,143.104 282.042,140.093 283.102,137.083 
			285.092,138.588 		"/>
		<g>
			<path fill="#9DD199" d="M228.854,123.751h-3.843c-0.789,0-1.472-0.34-1.872-0.933c-0.428-0.629-0.498-1.479-0.198-2.332
				l1.398-3.977c0.541-1.537,2.142-2.741,3.645-2.741h3.843c0.789,0,1.472,0.34,1.873,0.933c0.426,0.629,0.498,1.479,0.197,2.332
				l-1.398,3.977C231.957,122.547,230.356,123.751,228.854,123.751z M227.983,115.301c-0.876,0-1.928,0.809-2.253,1.732
				l-1.398,3.977c-0.133,0.376-0.125,0.715,0.02,0.929c0.155,0.231,0.444,0.28,0.659,0.28h3.843c0.891,0,1.922-0.794,2.253-1.733
				l1.398-3.977c0.132-0.376,0.126-0.715-0.019-0.928c-0.157-0.231-0.445-0.28-0.66-0.28H227.983z"/>
		</g>
		<g>
			<path fill="#9DD199" d="M222.909,140.652h-3.843c-0.789,0-1.472-0.341-1.873-0.934c-0.426-0.629-0.498-1.479-0.197-2.332
				l1.398-3.977c0.541-1.537,2.141-2.741,3.644-2.741h3.844c0.789,0,1.472,0.34,1.872,0.932c0.427,0.63,0.498,1.479,0.198,2.333
				l-1.399,3.977C226.013,139.448,224.412,140.652,222.909,140.652z M222.038,132.201c-0.875,0-1.927,0.811-2.251,1.733l-1.4,3.977
				c-0.133,0.377-0.125,0.715,0.02,0.929c0.156,0.23,0.445,0.278,0.66,0.278h3.843c0.89,0,1.922-0.792,2.253-1.731l1.398-3.977
				c0.133-0.376,0.126-0.715-0.02-0.929c-0.155-0.231-0.444-0.28-0.659-0.28H222.038z"/>
		</g>
		<g>
			<path fill="#A4C6E8" d="M216.965,157.553h-3.842c-0.79,0-1.474-0.34-1.875-0.933c-0.425-0.629-0.497-1.479-0.197-2.333
				l1.398-3.977c0.541-1.537,2.142-2.741,3.645-2.741h3.843c0.79,0,1.472,0.341,1.874,0.934c0.426,0.629,0.496,1.479,0.197,2.332
				l-1.398,3.977C220.068,156.349,218.468,157.553,216.965,157.553z M216.094,149.103c-0.891,0-1.922,0.793-2.252,1.732
				l-1.398,3.977c-0.133,0.376-0.125,0.715,0.019,0.929c0.157,0.231,0.444,0.279,0.661,0.279h3.842c0.891,0,1.923-0.793,2.252-1.732
				l1.399-3.977c0.132-0.377,0.126-0.715-0.02-0.929c-0.156-0.23-0.444-0.279-0.66-0.279H216.094z"/>
		</g>
		<path fill="#A4C6E8" d="M260.471,120.5h-21.136c-0.396,0-0.603-0.336-0.458-0.746c0.145-0.41,0.586-0.746,0.982-0.746h21.137
			c0.396,0,0.602,0.335,0.457,0.746C261.31,120.164,260.867,120.5,260.471,120.5z"/>
		<path fill="#A4C6E8" d="M259.422,123.482h-21.137c-0.396,0-0.602-0.335-0.457-0.745s0.586-0.746,0.982-0.746h21.137
			c0.396,0,0.602,0.336,0.458,0.746C260.261,123.147,259.818,123.482,259.422,123.482z"/>
		<path fill="#A4C6E8" d="M254.964,136.158h-21.136c-0.396,0-0.603-0.336-0.459-0.746c0.145-0.41,0.587-0.746,0.984-0.746h21.135
			c0.396,0,0.603,0.336,0.458,0.746C255.803,135.822,255.359,136.158,254.964,136.158z"/>
		<path fill="#A4C6E8" d="M253.915,139.141h-21.137c-0.396,0-0.603-0.336-0.458-0.746s0.587-0.746,0.982-0.746h21.136
			c0.397,0,0.603,0.336,0.458,0.746C254.753,138.805,254.312,139.141,253.915,139.141z"/>
		<path fill="#A4C6E8" d="M248.844,153.556h-21.136c-0.396,0-0.602-0.337-0.458-0.746c0.145-0.41,0.587-0.746,0.982-0.746h21.137
			c0.396,0,0.603,0.336,0.458,0.746C249.683,153.219,249.24,153.556,248.844,153.556z"/>
		<path fill="#A4C6E8" d="M247.796,156.538h-21.137c-0.396,0-0.603-0.336-0.458-0.746s0.586-0.746,0.982-0.746h21.136
			c0.396,0,0.603,0.336,0.459,0.746S248.191,156.538,247.796,156.538z"/>
		<g>
			<path fill="#F37169" d="M227.959,121.515c-0.064,0-0.131-0.01-0.194-0.027c-0.224-0.063-0.405-0.231-0.491-0.454l-1.452-3.728
				c-0.152-0.394,0.03-0.84,0.41-0.998s0.812,0.032,0.964,0.425l1.086,2.79l8.573-6.839c0.323-0.258,0.789-0.196,1.039,0.14
				c0.249,0.334,0.189,0.816-0.135,1.074l-9.348,7.456C228.28,121.459,228.121,121.515,227.959,121.515z"/>
		</g>
		<g>
			<path fill="#F37169" d="M222.015,138.415c-0.065,0-0.13-0.009-0.194-0.027c-0.224-0.063-0.406-0.229-0.492-0.452l-1.451-3.729
				c-0.152-0.393,0.031-0.839,0.41-0.997c0.379-0.157,0.813,0.032,0.963,0.425l1.087,2.79l8.573-6.839
				c0.324-0.258,0.789-0.196,1.039,0.139c0.249,0.335,0.189,0.816-0.135,1.075l-9.348,7.457
				C222.336,138.359,222.177,138.415,222.015,138.415z"/>
		</g>
		<polygon fill="#A4C6E8" points="361.768,100.865 280.587,100.865 282.686,94.9 363.866,94.9 		"/>
		<polygon fill="#A4C6E8" points="358.621,109.813 277.44,109.813 279.538,103.847 360.719,103.847 		"/>
		<path fill="#A4C6E8" d="M268.639,181.34h-59.614c-0.78,0-1.185-0.659-0.901-1.465c0.283-0.807,1.152-1.466,1.932-1.466h59.615
			c0.778,0,1.184,0.659,0.9,1.466C270.287,180.681,269.418,181.34,268.639,181.34z"/>
		<path fill="#A4C6E8" d="M266.347,187.854h-59.613c-0.778,0-1.185-0.659-0.901-1.466c0.283-0.806,1.152-1.465,1.933-1.465h59.614
			c0.778,0,1.184,0.659,0.9,1.465C267.995,187.194,267.126,187.854,266.347,187.854z"/>
	</g>
	<g>
		<path fill="#9DD199" d="M322.154,242.929c0-1.035,12.047-35.49,3.901-57.671c-5.703-15.53-6.603-34.168-6.603-34.168
			s-11.107,16.463-3.603,41.623c4.619,15.484,6.503,19.775,6.903,24.331c0.401,4.556-1.8,27.334-1.8,27.334L322.154,242.929z"/>
		<g>
			<path fill="#74B570" d="M320.954,244.762c-0.05,0-0.1-0.011-0.146-0.032c-0.148-0.064-0.238-0.223-0.223-0.39
				c0.022-0.228,2.193-22.794,1.8-27.261c-0.26-2.973-1.147-5.783-3.091-11.938c-0.996-3.153-2.234-7.076-3.798-12.315
				c-3.901-13.083-2.706-23.783-1.017-30.456c1.834-7.243,4.555-11.328,4.67-11.498c0.09-0.135,0.254-0.194,0.405-0.149
				c0.152,0.046,0.26,0.186,0.268,0.35c0.01,0.186,0.964,18.757,6.58,34.05c3.046,8.295,3.657,19.233,1.817,32.511
				c-1.468,10.601-4.088,19.661-5.206,23.53c-0.255,0.882-0.476,1.644-0.49,1.784c0,0.091-0.03,0.161-0.088,0.231l-1.201,1.449
				C321.162,244.714,321.06,244.762,320.954,244.762z M319.159,152.309c-0.912,1.627-2.685,5.191-3.973,10.291
				c-1.658,6.568-2.827,17.106,1.019,30c1.56,5.231,2.797,9.152,3.793,12.304c1.961,6.212,2.856,9.048,3.126,12.105
				c0.35,3.986-1.234,21.38-1.688,26.196l0.366-0.441c0.043-0.228,0.172-0.682,0.501-1.821c6.958-24.067,8.104-42.757,3.407-55.549
				C320.878,172.236,319.473,156.688,319.159,152.309z"/>
		</g>
		<path fill="#9DD199" d="M324.756,246.448c-1.802-38.309,7.004-59.224,25.015-75.79c18.009-16.564,18.81-20.914,18.81-20.914
			s-2.802,32.305-13.208,43.486c-10.405,11.182-25.613,19.465-27.815,25.264c-2.2,5.798-1.4,25.263-1.4,25.263l-1.4,3.52V246.448z"
			/>
		<path fill="#9DD199" d="M322.555,249.763c-0.201-0.621,3.802-35.825,18.409-37.896c14.609-2.071,18.011,1.45,28.017-0.207
			c7.139-1.182,12.607-3.521,12.607-3.521s-3.791,9.98-16.81,14.081c-9.205,2.898-21.212-1.863-28.216-0.621
			c-7.004,1.243-10.606,16.773-10.606,16.773l-1.2,8.075L322.555,249.763z"/>
		<g>
			<path fill="#74B570" d="M324.555,244.554c-0.188,0-0.351-0.148-0.368-0.348c-0.022-0.247-2.095-24.979,8.05-43.914
				c5.24-9.78,10.961-15.449,16.495-20.931c5.154-5.106,10.022-9.931,13.714-17.571c0.092-0.188,0.313-0.265,0.497-0.171
				c0.183,0.094,0.257,0.325,0.166,0.514c-3.75,7.76-8.663,12.628-13.866,17.782c-5.493,5.442-11.173,11.069-16.358,20.748
				c-10.03,18.725-7.981,43.228-7.96,43.473c0.019,0.211-0.131,0.397-0.335,0.417C324.578,244.554,324.566,244.554,324.555,244.554z
				"/>
		</g>
		<g>
			<path fill="#74B570" d="M323.555,239.584c-0.034,0-0.068-0.005-0.103-0.015c-0.197-0.06-0.31-0.271-0.253-0.475
				c3.83-13.663,8.228-21.635,13.836-25.086c5.013-3.087,10.194-2.14,15.681-1.137c1.344,0.245,2.731,0.499,4.105,0.686
				c11.922,1.618,17.735-1.379,17.793-1.41c0.182-0.097,0.405-0.022,0.499,0.165c0.093,0.188,0.021,0.419-0.159,0.517
				c-0.241,0.129-6.047,3.142-18.229,1.488c-1.391-0.188-2.788-0.443-4.139-0.691c-5.347-0.978-10.396-1.9-15.174,1.041
				c-5.438,3.347-9.728,11.176-13.503,24.641C323.864,239.476,323.716,239.584,323.555,239.584z"/>
		</g>
		<g>
			<path fill="#74B570" d="M342.666,186.469c-0.11,0-0.221-0.051-0.294-0.148c-0.124-0.168-0.095-0.409,0.067-0.538
				c0.07-0.056,7.188-5.67,17.065-7.631c0.201-0.039,0.396,0.097,0.434,0.305c0.039,0.207-0.093,0.408-0.293,0.448
				c-9.707,1.928-16.685,7.431-16.754,7.485C342.824,186.442,342.745,186.469,342.666,186.469z"/>
		</g>
		<g>
			<path fill="#74B570" d="M331.358,203.14c-0.063,0-0.129-0.018-0.188-0.055c-0.176-0.107-0.234-0.343-0.13-0.525
				c5.211-9.092,11.313-11.384,24.621-15.7c0.194-0.063,0.403,0.05,0.465,0.251c0.061,0.202-0.049,0.417-0.243,0.479
				c-13.12,4.256-19.134,6.511-24.205,15.362C331.608,203.072,331.485,203.14,331.358,203.14z"/>
		</g>
		<path fill="#F29993" d="M328.123,259.184h-8.937c-3.155,0-5.865-2.319-6.458-5.525l-2.881-15.597h27.615l-2.881,15.597
			C333.988,256.864,331.278,259.184,328.123,259.184z"/>
		<g>
			<path fill="#D54B42" d="M336.762,242.038h-26.014c-0.409,0-0.741-0.343-0.741-0.766c0-0.424,0.332-0.768,0.741-0.768h26.014
				c0.41,0,0.741,0.344,0.741,0.768C337.503,241.695,337.172,242.038,336.762,242.038z"/>
		</g>
	</g>
</g>
</svg>
