<?xml version="1.0" encoding="UTF-8"?>
<!DOCTYPE svg PUBLIC "-//W3C//DTD SVG 1.1//EN" "http://www.w3.org/Graphics/SVG/1.1/DTD/svg11.dtd">
<!-- Creator: CorelDRAW 2020 (64-Bit) -->
<svg xmlns="http://www.w3.org/2000/svg" xml:space="preserve" width="900px" height="500px" version="1.1" style="shape-rendering:geometricPrecision; text-rendering:geometricPrecision; image-rendering:optimizeQuality; fill-rule:evenodd; clip-rule:evenodd"
viewBox="0 0 900 500"
 xmlns:xlink="http://www.w3.org/1999/xlink"
 xmlns:xodm="http://www.corel.com/coreldraw/odm/2003">
 <defs>
  <style type="text/css">
   <![CDATA[
    .fil5 {fill:none;fill-rule:nonzero}
    .fil2 {fill:#414042;fill-rule:nonzero}
    .fil12 {fill:#54C6D3;fill-rule:nonzero}
    .fil4 {fill:#5D5C60;fill-rule:nonzero}
    .fil0 {fill:#5E5169;fill-rule:nonzero}
    .fil7 {fill:#655771;fill-rule:nonzero}
    .fil13 {fill:#70D5DA;fill-rule:nonzero}
    .fil9 {fill:#845B71;fill-rule:nonzero}
    .fil14 {fill:#897F92;fill-rule:nonzero}
    .fil3 {fill:#AEBDC1;fill-rule:nonzero}
    .fil15 {fill:#F1F2F2;fill-rule:nonzero}
    .fil8 {fill:#F3F5F6;fill-rule:nonzero}
    .fil10 {fill:#F8F9FA;fill-rule:nonzero}
    .fil6 {fill:#FBF8F1;fill-rule:nonzero}
    .fil1 {fill:#FED756;fill-rule:nonzero}
    .fil11 {fill:#FED859;fill-rule:nonzero}
   ]]>
  </style>
 </defs>
 <g id="Layer_x0020_1">
  <metadata id="CorelCorpID_0Corel-Layer"/>
  <path class="fil0" d="M163.43 201.61l0 -22.05c0,-1.54 -1.22,-2.79 -2.73,-2.79l-12.18 0 0 -5.15c0,-10.17 -8.1,-18.45 -18.07,-18.45l-51.12 0c-9.97,0 -18.08,8.28 -18.08,18.45l0 33.38c0,10.17 8.11,18.45 18.08,18.45l14.87 0 0 21.23c0,1.54 1.22,2.79 2.73,2.79l18.86 0c3.12,19 19.33,33.53 38.82,33.53 21.71,0 39.37,-18.03 39.37,-40.21 0,-19.07 -13.08,-35.08 -30.55,-39.18z"/>
  <path class="fil0" d="M209.65 297.92l-142.42 0c-1.51,0 -2.73,1.25 -2.73,2.79l0 147.19c0,1.54 1.22,2.79 2.73,2.79l142.42 0c1.51,0 2.73,-1.25 2.73,-2.79l0 -147.19c0,-1.54 -1.22,-2.79 -2.73,-2.79z"/>
  <path class="fil0" d="M846.96 186.81c-0.02,-0.04 0,-0.07 -0.02,-0.11 -0.04,-0.25 -0.12,-0.48 -0.22,-0.7 -0.01,-0.02 -0.01,-0.04 -0.02,-0.05l-15.98 -34.43c-0.52,-1.11 -1.61,-1.82 -2.82,-1.82 -1.21,0 -2.31,0.71 -2.82,1.82l-15.99 34.43c-0.01,0.01 -0.01,0.03 -0.02,0.05 -0.09,0.22 -0.17,0.45 -0.22,0.7 0,0.04 0,0.07 -0.01,0.11 -0.03,0.17 -0.05,0.33 -0.05,0.5l0 240.98c0,0.24 0.02,0.46 0.08,0.68 -0.05,0.37 -0.08,0.74 -0.08,1.1l0 13.06c0,5.68 4.53,10.31 10.1,10.31l18.01 0c5.57,0 10.1,-4.63 10.1,-10.31l0 -13.06c0,-0.36 -0.02,-0.72 -0.07,-1.1 0.05,-0.22 0.07,-0.44 0.07,-0.68l0 -240.98c0,-0.17 -0.02,-0.33 -0.04,-0.5z"/>
  <polygon class="fil1" points="832.54,196.2 800.58,196.2 800.58,418.78 832.54,418.78 "/>
  <path class="fil2" d="M803.69 415.59l25.73 0 0 -216.2 -25.73 0 0 216.2zm28.85 6.38l-31.96 0c-1.73,0 -3.12,-1.43 -3.12,-3.19l0 -222.58c0,-1.76 1.39,-3.19 3.12,-3.19l31.96 0c1.73,0 3.13,1.43 3.13,3.19l0 222.58c0,1.76 -1.4,3.19 -3.13,3.19z"/>
  <path class="fil3" d="M800.58 420.56l0 13.05c0,3.94 3.12,7.13 6.97,7.13l18.02 0c3.85,0 6.97,-3.19 6.97,-7.13l0 -13.05c0,-0.62 -0.1,-1.21 -0.24,-1.78l-31.49 0c-0.13,0.57 -0.23,1.16 -0.23,1.78z"/>
  <path class="fil2" d="M803.69 421.97l0 11.64c0,2.17 1.73,3.94 3.86,3.94l18.02 0c2.12,0 3.85,-1.77 3.85,-3.94l0 -11.64 -25.73 0zm21.88 21.95l-18.02 0c-5.56,0 -10.09,-4.62 -10.09,-10.31l0 -13.05c0,-0.82 0.11,-1.66 0.33,-2.57 0.36,-1.42 1.61,-2.4 3.02,-2.4l31.49 0c1.42,0 2.66,0.98 3.02,2.4 0.23,0.92 0.35,1.76 0.35,2.57l0 13.05c0,5.69 -4.53,10.31 -10.1,10.31z"/>
  <polygon class="fil3" points="800.58,196.2 832.54,196.2 832.54,177.8 800.58,177.8 "/>
  <path class="fil2" d="M803.69 193.01l25.73 0 0 -12.02 -25.73 0 0 12.02zm28.85 6.38l-31.96 0c-1.73,0 -3.12,-1.43 -3.12,-3.19l0 -18.4c0,-1.76 1.39,-3.19 3.12,-3.19l31.96 0c1.73,0 3.13,1.43 3.13,3.19l0 18.4c0,1.76 -1.4,3.19 -3.13,3.19z"/>
  <polygon class="fil4" points="816.56,143.37 816.56,143.37 800.58,177.8 832.54,177.8 "/>
  <path class="fil2" d="M805.51 174.61l22.1 0 -11.05 -23.8 -11.05 23.8zm27.03 6.38l-31.96 0c-1.08,0 -2.07,-0.56 -2.64,-1.49 -0.57,-0.92 -0.65,-2.08 -0.18,-3.07l15.97 -34.42c0.53,-1.12 1.62,-1.83 2.83,-1.83 1.2,0 2.31,0.71 2.82,1.83l15.98 34.42c0.46,0.99 0.4,2.15 -0.17,3.07 -0.58,0.93 -1.58,1.49 -2.65,1.49z"/>
  <line class="fil5" x1="816.56" y1="211.04" x2="816.56" y2= "232.7" />
  <path class="fil2" d="M816.56 235.89c-1.72,0 -3.13,-1.43 -3.13,-3.19l0 -21.66c0,-1.76 1.41,-3.19 3.13,-3.19 1.73,0 3.12,1.43 3.12,3.19l0 21.66c0,1.76 -1.39,3.19 -3.12,3.19z"/>
  <line class="fil5" x1="816.56" y1="343.99" x2="816.56" y2= "418.78" />
  <path class="fil2" d="M816.56 421.97c-1.72,0 -3.13,-1.43 -3.13,-3.19l0 -74.79c0,-1.76 1.41,-3.19 3.13,-3.19 1.73,0 3.12,1.43 3.12,3.19l0 74.79c0,1.76 -1.39,3.19 -3.12,3.19z"/>
  <path class="fil6" d="M660.4 14.4l-7.36 0c-1.08,0 -1.95,-0.89 -1.95,-2 0,-1.09 0.87,-1.99 1.95,-1.99l7.36 0c1.08,0 1.95,0.9 1.95,1.99 0,1.11 -0.87,2 -1.95,2z"/>
  <path class="fil6" d="M687.45 14.4l-13.52 0c-1.08,0 -1.96,-0.89 -1.96,-2 0,-1.09 0.88,-1.99 1.96,-1.99l13.52 0c1.08,0 1.95,0.9 1.95,1.99 0,1.11 -0.87,2 -1.95,2zm27.06 0l-13.53 0c-1.08,0 -1.95,-0.89 -1.95,-2 0,-1.09 0.87,-1.99 1.95,-1.99l13.53 0c1.08,0 1.96,0.9 1.96,1.99 0,1.11 -0.88,2 -1.96,2zm27.06 0l-13.53 0c-1.08,0 -1.96,-0.89 -1.96,-2 0,-1.09 0.88,-1.99 1.96,-1.99l13.53 0c1.07,0 1.95,0.9 1.95,1.99 0,1.11 -0.88,2 -1.95,2zm27.05 0l-13.53 0c-1.07,0 -1.96,-0.89 -1.96,-2 0,-1.09 0.89,-1.99 1.96,-1.99l13.53 0c1.08,0 1.95,0.9 1.95,1.99 0,1.11 -0.87,2 -1.95,2zm27.05 0l-13.52 0c-1.08,0 -1.95,-0.89 -1.95,-2 0,-1.09 0.87,-1.99 1.95,-1.99l13.52 0c1.08,0 1.95,0.9 1.95,1.99 0,1.11 -0.87,2 -1.95,2z"/>
  <path class="fil6" d="M816.56 21.92c-1.07,0 -1.96,-0.9 -1.96,-2l0 -5.52 -5.4 0c-1.08,0 -1.95,-0.89 -1.95,-2 0,-1.09 0.87,-1.99 1.95,-1.99l7.36 0c1.08,0 1.95,0.9 1.95,1.99l0 7.52c0,1.1 -0.87,2 -1.95,2z"/>
  <path class="fil6" d="M816.56 55.5c-1.07,0 -1.96,-0.89 -1.96,-1.99l0 -16.79c0,-1.11 0.89,-2 1.96,-2 1.08,0 1.95,0.89 1.95,2l0 16.79c0,1.1 -0.87,1.99 -1.95,1.99zm0 33.59c-1.07,0 -1.96,-0.89 -1.96,-1.99l0 -16.8c0,-1.1 0.89,-1.99 1.96,-1.99 1.08,0 1.95,0.89 1.95,1.99l0 16.8c0,1.1 -0.87,1.99 -1.95,1.99z"/>
  <path class="fil6" d="M816.56 113.4c-1.07,0 -1.96,-0.89 -1.96,-1.99l0 -7.52c0,-1.1 0.89,-1.99 1.96,-1.99 1.08,0 1.95,0.89 1.95,1.99l0 7.52c0,1.1 -0.87,1.99 -1.95,1.99z"/>
  <path class="fil6" d="M347.23 14.4l-7.36 0c-1.08,0 -1.95,-0.89 -1.95,-2 0,-1.09 0.87,-1.99 1.95,-1.99l7.36 0c1.07,0 1.95,0.9 1.95,1.99 0,1.11 -0.88,2 -1.95,2z"/>
  <path class="fil6" d="M182.23 14.4l-14.33 0c-1.08,0 -1.95,-0.89 -1.95,-2 0,-1.09 0.87,-1.99 1.95,-1.99l14.33 0c1.08,0 1.95,0.9 1.95,1.99 0,1.11 -0.87,2 -1.95,2zm28.66 0l-14.33 0c-1.07,0 -1.95,-0.89 -1.95,-2 0,-1.09 0.88,-1.99 1.95,-1.99l14.33 0c1.08,0 1.95,0.9 1.95,1.99 0,1.11 -0.87,2 -1.95,2zm28.66 0l-14.33 0c-1.07,0 -1.95,-0.89 -1.95,-2 0,-1.09 0.88,-1.99 1.95,-1.99l14.33 0c1.08,0 1.96,0.9 1.96,1.99 0,1.11 -0.88,2 -1.96,2zm28.67 0l-14.33 0c-1.08,0 -1.96,-0.89 -1.96,-2 0,-1.09 0.88,-1.99 1.96,-1.99l14.33 0c1.07,0 1.95,0.9 1.95,1.99 0,1.11 -0.88,2 -1.95,2zm28.66 0l-14.33 0c-1.08,0 -1.96,-0.89 -1.96,-2 0,-1.09 0.88,-1.99 1.96,-1.99l14.33 0c1.07,0 1.95,0.9 1.95,1.99 0,1.11 -0.88,2 -1.95,2zm28.66 0l-14.33 0c-1.08,0 -1.95,-0.89 -1.95,-2 0,-1.09 0.87,-1.99 1.95,-1.99l14.33 0c1.07,0 1.95,0.9 1.95,1.99 0,1.11 -0.88,2 -1.95,2z"/>
  <path class="fil6" d="M146.21 21.92c-1.08,0 -1.95,-0.9 -1.95,-2l0 -7.52c0,-1.09 0.87,-1.99 1.95,-1.99l7.36 0c1.08,0 1.95,0.9 1.95,1.99 0,1.11 -0.87,2 -1.95,2l-5.41 0 0 5.52c0,1.1 -0.87,2 -1.95,2z"/>
  <path class="fil6" d="M146.21 47.68c-1.08,0 -1.95,-0.89 -1.95,-1.99l0 -12.88c0,-1.1 0.87,-2 1.95,-2 1.08,0 1.95,0.9 1.95,2l0 12.88c0,1.1 -0.87,1.99 -1.95,1.99zm0 25.78c-1.08,0 -1.95,-0.9 -1.95,-2l0 -12.88c0,-1.1 0.87,-2 1.95,-2 1.08,0 1.95,0.9 1.95,2l0 12.88c0,1.1 -0.87,2 -1.95,2zm0 25.76c-1.08,0 -1.95,-0.89 -1.95,-1.99l0 -12.88c0,-1.1 0.87,-2 1.95,-2 1.08,0 1.95,0.9 1.95,2l0 12.88c0,1.1 -0.87,1.99 -1.95,1.99z"/>
  <path class="fil6" d="M146.21 119.63c-1.08,0 -1.95,-0.9 -1.95,-2l0 -7.51c0,-1.1 0.87,-1.99 1.95,-1.99 1.08,0 1.95,0.89 1.95,1.99l0 7.51c0,1.1 -0.87,2 -1.95,2z"/>
  <path class="fil3" d="M153.01 191.97c0,8.65 -6.87,15.66 -15.34,15.66l-51.13 0c-8.47,0 -15.34,-7.01 -15.34,-15.66l0 -33.38c0,-8.65 6.87,-15.66 15.34,-15.66l51.13 0c8.47,0 15.34,7.01 15.34,15.66l0 33.38z"/>
  <path class="fil2" d="M86.54 145.72c-6.95,0 -12.61,5.77 -12.61,12.87l0 33.38c0,7.1 5.66,12.87 12.61,12.87l51.13 0c6.95,0 12.61,-5.77 12.61,-12.87l0 -33.38c0,-7.1 -5.66,-12.87 -12.61,-12.87l-51.13 0zm51.13 64.7l-51.13 0c-9.96,0 -18.07,-8.28 -18.07,-18.45l0 -33.38c0,-10.17 8.11,-18.45 18.07,-18.45l51.13 0c9.96,0 18.07,8.28 18.07,18.45l0 33.38c0,10.17 -8.11,18.45 -18.07,18.45z"/>
  <polygon class="fil7" points="104.15,231.65 167.91,231.65 167.91,166.53 104.15,166.53 "/>
  <path class="fil2" d="M106.88 228.86l58.3 0 0 -59.54 -58.3 0 0 59.54zm61.03 5.58l-63.76 0c-1.51,0 -2.73,-1.25 -2.73,-2.79l0 -65.12c0,-1.54 1.22,-2.79 2.73,-2.79l63.76 0c1.51,0 2.74,1.25 2.74,2.79l0 65.12c0,1.54 -1.23,2.79 -2.74,2.79z"/>
  <path class="fil1" d="M198.46 227.76c0,20.67 -16.4,37.42 -36.64,37.42 -20.23,0 -36.64,-16.75 -36.64,-37.42 0,-20.66 16.41,-37.42 36.64,-37.42 20.24,0 36.64,16.76 36.64,37.42z"/>
  <path class="fil2" d="M161.82 193.13c-18.7,0 -33.91,15.54 -33.91,34.63 0,19.1 15.21,34.63 33.91,34.63 18.7,0 33.91,-15.53 33.91,-34.63 0,-19.09 -15.21,-34.63 -33.91,-34.63zm0 74.84c-21.71,0 -39.37,-18.04 -39.37,-40.21 0,-22.17 17.66,-40.21 39.37,-40.21 21.71,0 39.38,18.04 39.38,40.21 0,22.17 -17.67,40.21 -39.38,40.21z"/>
  <polygon class="fil8" points="54,438.5 196.42,438.5 196.42,291.3 54,291.3 "/>
  <path class="fil2" d="M56.73 435.71l136.96 0 0 -141.62 -136.96 0 0 141.62zm139.69 5.58l-142.42 0c-1.51,0 -2.73,-1.25 -2.73,-2.79l0 -147.2c0,-1.54 1.22,-2.79 2.73,-2.79l142.42 0c1.51,0 2.73,1.25 2.73,2.79l0 147.2c0,1.54 -1.22,2.79 -2.73,2.79z"/>
  <polygon class="fil1" points="138.44,382.85 160.53,360.29 175.91,376 175.91,312.83 73.94,312.83 73.94,396.75 112.11,355.95 "/>
  <path class="fil2" d="M76.67 315.62l0 74.17 33.46 -35.77c0.51,-0.54 1.21,-0.85 1.95,-0.86 0.65,-0.02 1.44,0.29 1.96,0.82l24.4 24.92 20.16 -20.58c1.06,-1.09 2.8,-1.09 3.86,0l10.72 10.94 0 -53.64 -96.51 0zm-2.73 83.92c-0.34,0 -0.69,-0.06 -1.02,-0.2 -1.03,-0.42 -1.71,-1.45 -1.71,-2.59l0 -83.92c0,-1.54 1.22,-2.79 2.73,-2.79l101.97 0c1.51,0 2.73,1.25 2.73,2.79l0 63.17c0,1.12 -0.66,2.14 -1.68,2.57 -1.03,0.43 -2.2,0.2 -2.98,-0.6l-13.45 -13.74 -20.16 20.59c-1.06,1.09 -2.79,1.09 -3.86,0l-24.36 -24.88 -36.24 38.74c-0.52,0.56 -1.24,0.86 -1.97,0.86z"/>
  <polygon class="fil3" points="112.11,355.95 73.94,396.75 73.94,399.07 122.55,399.07 138.44,382.85 "/>
  <path class="fil2" d="M78.15 396.28l43.27 0 13.16 -13.43 -22.43 -22.91 -34 36.34zm-4.21 0.47l0.02 0 -0.02 0zm48.61 5.12l-48.61 0c-1.51,0 -2.73,-1.26 -2.73,-2.8l0 -2.32c0,-0.72 0.27,-1.41 0.75,-1.93l38.17 -40.8c0.51,-0.54 1.21,-0.85 1.95,-0.86 0.65,-0.02 1.44,0.29 1.96,0.82l26.33 26.89c0.52,0.53 0.8,1.24 0.8,1.98 0,0.74 -0.28,1.45 -0.8,1.97l-15.89 16.23c-0.51,0.52 -1.2,0.82 -1.93,0.82z"/>
  <polygon class="fil3" points="122.55,399.07 154.33,399.07 138.44,382.85 "/>
  <path class="fil2" d="M129.15 396.28l18.59 0 -9.3 -9.49 -9.29 9.49zm25.18 5.59l-31.78 0c-1.1,0 -2.1,-0.68 -2.52,-1.73 -0.43,-1.04 -0.19,-2.24 0.59,-3.04l15.89 -16.23c1.02,-1.04 2.84,-1.04 3.86,0l15.89 16.23c0.78,0.8 1.02,2 0.6,3.04 -0.43,1.05 -1.42,1.73 -2.53,1.73z"/>
  <polygon class="fil3" points="175.91,376 160.53,360.29 138.44,382.85 154.33,399.07 175.91,399.07 "/>
  <path class="fil2" d="M155.46 396.28l17.72 0 0 -19.13 -12.65 -12.92 -18.22 18.62 13.15 13.43zm20.45 5.59l-21.58 0c-0.72,0 -1.42,-0.3 -1.93,-0.82l-15.89 -16.23c-1.07,-1.09 -1.07,-2.86 0,-3.95l22.09 -22.55c1.06,-1.09 2.8,-1.09 3.86,0l15.38 15.7c0.51,0.53 0.8,1.24 0.8,1.98l0 23.07c0,1.54 -1.22,2.8 -2.73,2.8z"/>
  <path class="fil9" d="M149.26 339.86c0,6.1 -4.84,11.05 -10.82,11.05 -5.98,0 -10.82,-4.95 -10.82,-11.05 0,-6.1 4.84,-11.06 10.82,-11.06 5.98,0 10.82,4.96 10.82,11.06z"/>
  <path class="fil2" d="M138.44 331.6c-4.46,0 -8.09,3.7 -8.09,8.26 0,4.56 3.63,8.26 8.09,8.26 4.46,0 8.09,-3.7 8.09,-8.26 0,-4.56 -3.63,-8.26 -8.09,-8.26zm0 22.1c-7.47,0 -13.55,-6.21 -13.55,-13.84 0,-7.63 6.08,-13.85 13.55,-13.85 7.47,0 13.56,6.22 13.56,13.85 0,7.63 -6.09,13.84 -13.56,13.84z"/>
  <path class="fil2" d="M168.5 419.18l-85.45 0c-1.51,0 -2.73,-1.25 -2.73,-2.79 0,-1.54 1.22,-2.79 2.73,-2.79l85.45 0c1.51,0 2.74,1.25 2.74,2.79 0,1.54 -1.23,2.79 -2.74,2.79z"/>
  <path class="fil10" d="M234.99 106.62l0 350.19c102.6,0 384.6,0 519.79,0l0 -350.19c-145.28,0 -431.73,0 -519.79,0z"/>
  <path class="fil2" d="M238.11 453.62l513.55 0 0 -343.81 -513.55 0 0 343.81zm516.67 6.38l-519.79 0c-1.72,0 -3.12,-1.43 -3.12,-3.19l0 -350.19c0,-1.76 1.4,-3.18 3.12,-3.18l519.79 0c1.72,0 3.12,1.42 3.12,3.18l0 350.19c0,1.76 -1.4,3.19 -3.12,3.19z"/>
  <path class="fil11" d="M754.78 76.95c0,-3.94 -3.13,-7.13 -6.98,-7.13l-505.84 0c-3.85,0 -6.97,3.19 -6.97,7.13l0 29.67c88.06,0 374.51,0 519.79,0l0 -29.67z"/>
  <path class="fil2" d="M238.11 103.44l513.55 0 0 -26.49c0,-2.17 -1.73,-3.94 -3.86,-3.94l-505.84 0c-2.12,0 -3.85,1.77 -3.85,3.94l0 26.49zm516.67 6.37l-519.79 0c-1.72,0 -3.12,-1.43 -3.12,-3.19l0 -29.67c0,-5.69 4.53,-10.31 10.09,-10.31l505.84 0c5.57,0 10.1,4.62 10.1,10.31l0 29.67c0,1.76 -1.4,3.19 -3.12,3.19z"/>
  <polygon class="fil12" points="259.76,189.72 725.86,189.72 725.86,131.55 259.76,131.55 "/>
  <path class="fil2" d="M262.89 186.53l459.86 0 0 -51.79 -459.86 0 0 51.79zm462.97 6.38l-466.1 0c-1.72,0 -3.12,-1.43 -3.12,-3.19l0 -58.17c0,-1.76 1.4,-3.19 3.12,-3.19l466.1 0c1.73,0 3.12,1.43 3.12,3.19l0 58.17c0,1.76 -1.39,3.19 -3.12,3.19z"/>
  <polygon class="fil12" points="259.76,333.35 463.18,333.35 463.18,211.09 259.76,211.09 "/>
  <path class="fil2" d="M262.89 330.16l197.16 0 0 -115.89 -197.16 0 0 115.89zm200.29 6.38l-203.42 0c-1.72,0 -3.12,-1.43 -3.12,-3.19l0 -122.27c0,-1.76 1.4,-3.18 3.12,-3.18l203.42 0c1.72,0 3.12,1.42 3.12,3.18l0 122.27c0,1.76 -1.4,3.19 -3.12,3.19z"/>
  <polygon class="fil7" points="479.45,272.22 725.86,272.22 725.86,211.09 479.45,211.09 "/>
  <path class="fil2" d="M482.57 269.03l240.18 0 0 -54.76 -240.18 0 0 54.76zm243.29 6.38l-246.41 0c-1.73,0 -3.12,-1.43 -3.12,-3.19l0 -61.14c0,-1.76 1.39,-3.18 3.12,-3.18l246.41 0c1.73,0 3.12,1.42 3.12,3.18l0 61.14c0,1.76 -1.39,3.19 -3.12,3.19z"/>
  <line class="fil5" x1="479.45" y1="292.7" x2="725.86" y2= "292.7" />
  <path class="fil2" d="M725.86 295.89l-246.41 0c-1.73,0 -3.12,-1.43 -3.12,-3.19 0,-1.76 1.39,-3.19 3.12,-3.19l246.41 0c1.73,0 3.12,1.43 3.12,3.19 0,1.76 -1.39,3.19 -3.12,3.19z"/>
  <line class="fil5" x1="479.45" y1="328.61" x2="568.95" y2= "328.61" />
  <path class="fil2" d="M568.95 331.79l-89.5 0c-1.73,0 -3.12,-1.42 -3.12,-3.18 0,-1.76 1.39,-3.19 3.12,-3.19l89.5 0c1.72,0 3.12,1.43 3.12,3.19 0,1.76 -1.4,3.18 -3.12,3.18z"/>
  <line class="fil5" x1="593.07" y1="328.61" x2="661.94" y2= "328.61" />
  <path class="fil2" d="M661.94 331.79l-68.87 0c-1.73,0 -3.13,-1.42 -3.13,-3.18 0,-1.76 1.4,-3.19 3.13,-3.19l68.87 0c1.72,0 3.12,1.43 3.12,3.19 0,1.76 -1.4,3.18 -3.12,3.18z"/>
  <line class="fil5" x1="680.53" y1="328.61" x2="725.86" y2= "328.61" />
  <path class="fil2" d="M725.86 331.79l-45.33 0c-1.72,0 -3.12,-1.42 -3.12,-3.18 0,-1.76 1.4,-3.19 3.12,-3.19l45.33 0c1.73,0 3.12,1.43 3.12,3.19 0,1.76 -1.39,3.18 -3.12,3.18z"/>
  <polygon class="fil7" points="479.45,432.09 568.95,432.09 568.95,356.63 479.45,356.63 "/>
  <path class="fil2" d="M482.57 428.9l83.25 0 0 -69.09 -83.25 0 0 69.09zm86.38 6.38l-89.5 0c-1.73,0 -3.12,-1.43 -3.12,-3.19l0 -75.46c0,-1.77 1.39,-3.19 3.12,-3.19l89.5 0c1.72,0 3.12,1.42 3.12,3.19l0 75.46c0,1.76 -1.4,3.19 -3.12,3.19z"/>
  <polygon class="fil3" points="591.32,432.09 725.86,432.09 725.86,356.63 591.32,356.63 "/>
  <path class="fil2" d="M594.45 428.9l128.3 0 0 -69.09 -128.3 0 0 69.09zm131.41 6.38l-134.54 0c-1.72,0 -3.12,-1.43 -3.12,-3.19l0 -75.46c0,-1.77 1.4,-3.19 3.12,-3.19l134.54 0c1.73,0 3.12,1.42 3.12,3.19l0 75.46c0,1.76 -1.39,3.19 -3.12,3.19z"/>
  <line class="fil5" x1="463.18" y1="363" x2="315.85" y2= "363" />
  <path class="fil2" d="M463.18 366.19l-147.33 0c-1.73,0 -3.12,-1.43 -3.12,-3.19 0,-1.76 1.39,-3.19 3.12,-3.19l147.33 0c1.72,0 3.12,1.43 3.12,3.19 0,1.76 -1.4,3.19 -3.12,3.19z"/>
  <line class="fil5" x1="300.24" y1="363" x2="259.76" y2= "363" />
  <path class="fil2" d="M300.24 366.19l-40.48 0c-1.72,0 -3.12,-1.43 -3.12,-3.19 0,-1.76 1.4,-3.19 3.12,-3.19l40.48 0c1.72,0 3.12,1.43 3.12,3.19 0,1.76 -1.4,3.19 -3.12,3.19z"/>
  <line class="fil5" x1="259.76" y1="398.08" x2="379.33" y2= "398.08" />
  <path class="fil2" d="M379.33 401.27l-119.57 0c-1.72,0 -3.12,-1.43 -3.12,-3.19 0,-1.76 1.4,-3.19 3.12,-3.19l119.57 0c1.73,0 3.13,1.43 3.13,3.19 0,1.76 -1.4,3.19 -3.13,3.19z"/>
  <line class="fil5" x1="393.18" y1="398.08" x2="463.18" y2= "398.08" />
  <path class="fil2" d="M463.18 401.27l-70 0c-1.72,0 -3.12,-1.43 -3.12,-3.19 0,-1.76 1.4,-3.19 3.12,-3.19l70 0c1.72,0 3.12,1.43 3.12,3.19 0,1.76 -1.4,3.19 -3.12,3.19z"/>
  <line class="fil5" x1="464.33" y1="432.09" x2="347.23" y2= "432.09" />
  <path class="fil2" d="M464.33 435.28l-117.1 0c-1.73,0 -3.13,-1.43 -3.13,-3.19 0,-1.76 1.4,-3.19 3.13,-3.19l117.1 0c1.73,0 3.13,1.43 3.13,3.19 0,1.76 -1.4,3.19 -3.13,3.19z"/>
  <line class="fil5" x1="327.3" y1="432.09" x2="290.31" y2= "432.09" />
  <path class="fil2" d="M327.3 435.28l-36.99 0c-1.73,0 -3.12,-1.43 -3.12,-3.19 0,-1.76 1.39,-3.19 3.12,-3.19l36.99 0c1.72,0 3.12,1.43 3.12,3.19 0,1.76 -1.4,3.19 -3.12,3.19z"/>
  <path class="fil13" d="M372.49 259.94l-43.71 0c-0.94,0 -1.78,-0.57 -2.15,-1.46 -0.37,-0.88 -0.18,-1.9 0.47,-2.59l13.83 -14.67c0.9,-0.96 2.39,-0.98 3.32,-0.07 0.93,0.92 0.95,2.43 0.06,3.38l-10.02 10.63 37.17 0 12.54 -13.91c0.88,-0.97 2.36,-1.03 3.31,-0.14 0.95,0.9 1.01,2.41 0.14,3.38l-13.24 14.68c-0.45,0.49 -1.07,0.77 -1.72,0.77z"/>
  <path class="fil13" d="M372.49 274.61l-43.71 0c-0.94,0 -1.78,-0.57 -2.15,-1.45 -0.37,-0.89 -0.18,-1.91 0.47,-2.6l13.83 -14.67c0.9,-0.95 2.39,-0.98 3.32,-0.07 0.93,0.92 0.95,2.43 0.06,3.39l-10.02 10.62 37.17 0 12.54 -13.9c0.88,-0.98 2.36,-1.04 3.31,-0.14 0.95,0.89 1.01,2.41 0.14,3.38l-13.24 14.67c-0.45,0.49 -1.07,0.77 -1.72,0.77z"/>
  <path class="fil13" d="M371.29 289.29l-43.7 0c-0.94,0 -1.79,-0.58 -2.16,-1.46 -0.37,-0.88 -0.18,-1.9 0.47,-2.59l13.84 -14.68c0.89,-0.95 2.38,-0.98 3.31,-0.06 0.93,0.91 0.96,2.43 0.06,3.38l-10.02 10.62 37.17 0 12.54 -13.9c0.88,-0.97 2.36,-1.03 3.31,-0.14 0.95,0.9 1.01,2.41 0.14,3.38l-13.24 14.68c-0.44,0.49 -1.07,0.77 -1.72,0.77z"/>
  <path class="fil13" d="M371.29 303.96l-43.7 0c-0.94,0 -1.79,-0.57 -2.16,-1.46 -0.37,-0.88 -0.18,-1.9 0.47,-2.59l13.84 -14.67c0.89,-0.96 2.38,-0.98 3.31,-0.07 0.93,0.92 0.96,2.43 0.06,3.38l-10.02 10.63 37.17 0 12.54 -13.91c0.88,-0.97 2.36,-1.03 3.31,-0.13 0.95,0.89 1.01,2.4 0.14,3.38l-13.24 14.67c-0.44,0.49 -1.07,0.77 -1.72,0.77z"/>
  <path class="fil14" d="M621.85 237.73l-113.99 0c-1.29,0 -2.34,-1.07 -2.34,-2.39 0,-1.32 1.05,-2.39 2.34,-2.39l113.99 0c1.29,0 2.34,1.07 2.34,2.39 0,1.32 -1.05,2.39 -2.34,2.39z"/>
  <path class="fil14" d="M658.59 252.6l-85.16 0c-1.3,0 -2.35,-1.07 -2.35,-2.39 0,-1.32 1.05,-2.39 2.35,-2.39l85.16 0c1.3,0 2.34,1.07 2.34,2.39 0,1.32 -1.04,2.39 -2.34,2.39z"/>
  <path class="fil14" d="M685.82 252.6l-16.39 0c-1.29,0 -2.34,-1.07 -2.34,-2.39 0,-1.32 1.05,-2.39 2.34,-2.39l16.39 0c1.29,0 2.34,1.07 2.34,2.39 0,1.32 -1.05,2.39 -2.34,2.39z"/>
  <path class="fil13" d="M517.23 163.03l-226.92 0c-1.29,0 -2.34,-1.07 -2.34,-2.4 0,-1.32 1.05,-2.39 2.34,-2.39l226.92 0c1.29,0 2.34,1.07 2.34,2.39 0,1.33 -1.05,2.4 -2.34,2.4z"/>
  <path class="fil13" d="M564.86 163.03l-30.46 0c-1.3,0 -2.34,-1.07 -2.34,-2.4 0,-1.32 1.04,-2.39 2.34,-2.39l30.46 0c1.29,0 2.34,1.07 2.34,2.39 0,1.33 -1.05,2.4 -2.34,2.4z"/>
  <path class="fil14" d="M534.4 378.99l-36.95 0c-1.29,0 -2.34,-1.07 -2.34,-2.39 0,-1.32 1.05,-2.39 2.34,-2.39l36.95 0c1.29,0 2.34,1.07 2.34,2.39 0,1.32 -1.05,2.39 -2.34,2.39z"/>
  <path class="fil14" d="M547.41 411.04l-37.47 0c-1.29,0 -2.34,-1.07 -2.34,-2.39 0,-1.32 1.05,-2.39 2.34,-2.39l37.47 0c1.29,0 2.34,1.07 2.34,2.39 0,1.32 -1.05,2.39 -2.34,2.39z"/>
  <path class="fil15" d="M661.94 383.08l-52.61 0c-1.29,0 -2.34,-1.07 -2.34,-2.4 0,-1.32 1.05,-2.39 2.34,-2.39l52.61 0c1.29,0 2.34,1.07 2.34,2.39 0,1.33 -1.05,2.4 -2.34,2.4z"/>
  <path class="fil15" d="M680.53 383.08l-11.1 0c-1.29,0 -2.34,-1.07 -2.34,-2.4 0,-1.32 1.05,-2.39 2.34,-2.39l11.1 0c1.3,0 2.34,1.07 2.34,2.39 0,1.33 -1.04,2.4 -2.34,2.4z"/>
  <path class="fil15" d="M703.2 401.87l-78.78 0c-1.29,0 -2.34,-1.07 -2.34,-2.39 0,-1.33 1.05,-2.4 2.34,-2.4l78.78 0c1.29,0 2.34,1.07 2.34,2.4 0,1.32 -1.05,2.39 -2.34,2.39z"/>
  <path class="fil15" d="M653.04 418.68l-14.32 0c-1.3,0 -2.34,-1.07 -2.34,-2.39 0,-1.32 1.04,-2.39 2.34,-2.39l14.32 0c1.29,0 2.34,1.07 2.34,2.39 0,1.32 -1.05,2.39 -2.34,2.39z"/>
 </g>
</svg>
