<?xml version="1.0" encoding="utf-8"?>
<!-- Generator: Adobe Illustrator 16.0.0, SVG Export Plug-In . SVG Version: 6.00 Build 0)  -->
<!DOCTYPE svg PUBLIC "-//W3C//DTD SVG 1.1//EN" "http://www.w3.org/Graphics/SVG/1.1/DTD/svg11.dtd">
<svg version="1.1" id="Layer_1" xmlns="http://www.w3.org/2000/svg" xmlns:xlink="http://www.w3.org/1999/xlink" x="0px" y="0px"
	 width="600px" height="300px" viewBox="0 0 600 300" enable-background="new 0 0 600 300" xml:space="preserve">
<rect x="249.895" y="42.958" fill="#FFFFFF" width="326.621" height="205.01"/>
<path fill="#86D3EA" d="M-0.552,246.744l20-2.209c20-2.375,60-6.541,100-6.666c40,0.125,80,4.291,120,13.332
	c40,8.875,80,22.209,120,15.543c40-6.668,81.485-22.203,121.485-31.078c40-9.041,77.399-7.625,97.399-3.334l21.114,1.078v66.666h-20
	c-20,0-60,0-100,0s-80,0-120,0s-80,0-120,0s-80,0-120,0s-80,0-100,0h-20L-0.552,246.744L-0.552,246.744z"/>
<path fill="#86D3EA" d="M599.462,60.448l-19.98,2.468c-19.979,2.654-59.941,7.307-99.904,7.465
	c-39.966-0.121-79.929-4.739-119.897-14.783c-39.967-9.859-78.223,16.357-118.18,23.796c-39.961,7.438-83.118-16.291-123.076-6.395
	c-39.96,10.08-77.324,8.522-97.309,3.756l-21.097-1.19L-0.017,1.363l19.982-0.009c19.981-0.01,59.944-0.028,99.908-0.046
	c39.964-0.019,79.926-0.037,119.892-0.055c39.962-0.019,79.926-0.037,119.887-0.056c39.967-0.019,79.928-0.037,119.891-0.056
	c39.965-0.018,79.931-0.036,99.909-0.045l19.979-0.009L599.462,60.448z"/>
<g>
	<path fill="#EBF3FB" d="M551.897,228.186c-5.404,0-16.478,0.486-16.595,0.709h-27.919l-8.171-0.021h-73.165l-21.368-0.021h-56.328
		l-23.527-0.021h-42.546c0,0-0.07-0.18-0.211-0.535l-0.023-0.044c0,0-0.023-0.045-0.023-0.067
		c-0.094-0.177-35.405-70.889,22.896-105.747c22.812-13.638,10.791-40.873,44.554-57.37c43.53-21.271,55.395,9.635,106.868,2.163
		c44.706-6.489,65.075,14.18,61.938,44.919c-1.475,14.438,8.645,25.505,18.625,27.49c27.534,5.478,26.548,37.554,24.298,61.125
		C559.811,215.291,552.089,228.186,551.897,228.186z"/>
	<g opacity="0.5">
		<path fill="#B2CBEA" d="M488.175,105.986l-2.037-1.233c-0.169-0.104-0.265-0.295-0.249-0.492c0.021-0.253,0.031-0.508,0.031-0.766
			c0-0.479-0.033-0.948-0.105-1.404c-0.034-0.214,0.063-0.424,0.244-0.534l2.128-1.29c0.229-0.136,0.315-0.428,0.195-0.67
			l-1.001-2.047c-0.114-0.232-0.382-0.338-0.623-0.253l-2.149,0.784c-0.208,0.081-0.444,0.01-0.583-0.172
			c-0.593-0.768-1.308-1.44-2.112-1.99c-0.195-0.133-0.275-0.388-0.195-0.61l0.479-1.313c0.088-0.25-0.021-0.532-0.261-0.652
			l-2.025-0.995c-0.041-0.021-0.082-0.037-0.126-0.045c-0.207-0.044-0.429,0.05-0.54,0.24l-0.919,1.527l-0.224,0.372
			c-0.417-0.06-0.849-0.091-1.28-0.091c-0.583,0-1.157,0.055-1.707,0.159c-0.211,0.039-0.422-0.052-0.532-0.238l-1.033-1.721
			c-0.142-0.235-0.438-0.323-0.683-0.201l-1.559,0.768l-0.445,0.222c-0.243,0.12-0.361,0.406-0.269,0.662l0.651,1.806
			c0.077,0.208,0.015,0.442-0.156,0.578c-0.505,0.414-0.968,0.88-1.372,1.392c-0.039,0.041-0.069,0.083-0.104,0.126
			c-0.011,0.017-0.021,0.029-0.035,0.042c-0.144,0.153-0.363,0.204-0.562,0.13l-2.125-0.773c-0.022-0.011-0.049-0.016-0.072-0.021
			c-0.229-0.046-0.467,0.068-0.572,0.281l-0.99,2.028c-0.12,0.244-0.034,0.539,0.198,0.682l2.125,1.284
			c0.182,0.108,0.274,0.315,0.242,0.524c-0.071,0.458-0.106,0.93-0.106,1.412c0,0.255,0.011,0.508,0.03,0.758
			c0.016,0.204-0.083,0.398-0.257,0.503l-2.043,1.24c-0.228,0.136-0.313,0.425-0.196,0.665l0.995,2.024
			c0.118,0.245,0.4,0.362,0.661,0.269l1.702-0.62c0.227-0.083,0.479,0,0.613,0.2c0.521,0.795,1.164,1.501,1.901,2.098
			c0.177,0.138,0.244,0.377,0.166,0.592l-0.695,1.923c-0.094,0.258,0.024,0.544,0.269,0.667l2.011,0.993
			c0.24,0.12,0.534,0.031,0.669-0.199l0.055-0.087l1.066-1.775c0.113-0.189,0.329-0.286,0.547-0.247h0.003
			c0.521,0.094,1.058,0.143,1.608,0.143c0.292,0,0.581-0.015,0.867-0.042c0.2-0.021,0.394,0.076,0.496,0.248l1.049,1.748
			c0.143,0.24,0.445,0.329,0.692,0.206l2.008-0.992c0.059-0.029,0.106-0.067,0.146-0.11c0.134-0.141,0.183-0.352,0.115-0.542
			l-0.523-1.441c-0.062-0.177-0.026-0.375,0.09-0.516c0.03-0.036,0.068-0.07,0.109-0.099c1.012-0.677,1.876-1.55,2.548-2.569
			c0.111-0.175,0.319-0.258,0.519-0.224c0.029,0.006,0.058,0.014,0.087,0.024l1.72,0.627c0.249,0.092,0.526-0.021,0.646-0.261
			l0.023-0.046l0.968-1.975C488.498,106.426,488.41,106.129,488.175,105.986z M472.098,102.091c0.1-0.352,0.234-0.709,0.409-1.066
			c0.337-0.68,1.17-1.521,1.852-1.857c0.071-0.037,0.145-0.071,0.218-0.104c4.447-2.006,8.734,2.379,6.578,6.847
			c-0.282,0.583-0.906,1.269-1.519,1.693c-0.143,0.096-0.282,0.183-0.414,0.245c-0.621,0.302-1.237,0.479-1.84,0.548
			C473.953,108.779,471.13,105.613,472.098,102.091z"/>
	</g>
	<g>
		<path fill="#CEDFF3" d="M400.662,95.64l-5.053-2.354c-0.42-0.2-0.69-0.619-0.705-1.084c-0.014-0.594-0.055-1.191-0.119-1.792
			c-0.121-1.116-0.316-2.201-0.602-3.244c-0.132-0.489,0.037-1.005,0.439-1.306l4.631-3.544c0.497-0.373,0.624-1.075,0.284-1.608
			l-2.847-4.516c-0.324-0.511-0.974-0.692-1.516-0.43l-4.813,2.372c-0.463,0.241-1.029,0.137-1.401-0.252
			c-1.571-1.64-3.401-3.025-5.42-4.101c-0.485-0.261-0.738-0.835-0.606-1.371l0.781-3.18c0.143-0.604-0.181-1.233-0.768-1.451
			l-4.971-1.805c-0.102-0.037-0.201-0.063-0.307-0.07c-0.494-0.05-0.984,0.224-1.197,0.695l-1.755,3.79l-0.427,0.924
			c-0.986-0.033-1.998,0.003-3.007,0.113c-1.359,0.148-2.683,0.421-3.937,0.803c-0.479,0.145-0.998-0.014-1.3-0.417l-2.838-3.75
			c-0.394-0.51-1.103-0.642-1.64-0.294l-3.438,2.186l-0.985,0.628c-0.537,0.341-0.735,1.039-0.455,1.609l1.972,4.04
			c0.233,0.466,0.146,1.029-0.218,1.387c-1.073,1.094-2.032,2.296-2.846,3.588c-0.08,0.107-0.145,0.211-0.209,0.325
			c-0.021,0.038-0.049,0.072-0.074,0.104c-0.295,0.394-0.797,0.565-1.273,0.446l-5.145-1.264c-0.057-0.019-0.117-0.024-0.174-0.03
			c-0.543-0.051-1.07,0.276-1.266,0.801l-1.798,4.973c-0.218,0.601,0.057,1.264,0.637,1.539l5.272,2.453
			c0.447,0.203,0.719,0.665,0.691,1.159c-0.047,1.086-0.013,2.193,0.107,3.316c0.064,0.595,0.152,1.181,0.265,1.758
			c0.086,0.469-0.095,0.949-0.473,1.237l-4.45,3.407c-0.491,0.374-0.618,1.068-0.286,1.597l2.823,4.463
			c0.341,0.541,1.027,0.742,1.609,0.458l3.808-1.876c0.511-0.252,1.118-0.122,1.481,0.311c1.414,1.719,3.092,3.201,4.957,4.403
			c0.445,0.277,0.664,0.819,0.535,1.336l-1.137,4.655c-0.152,0.625,0.191,1.262,0.792,1.484l4.933,1.803
			c0.59,0.218,1.252-0.062,1.508-0.63l0.104-0.22l2.038-4.404c0.218-0.472,0.693-0.751,1.213-0.715l0.006-0.001
			c1.238,0.086,2.502,0.066,3.782-0.074c0.683-0.074,1.351-0.183,2.015-0.317c0.459-0.1,0.931,0.077,1.217,0.451l2.881,3.806
			c0.393,0.522,1.121,0.652,1.665,0.303l4.427-2.821c0.127-0.082,0.23-0.186,0.316-0.292c0.272-0.362,0.336-0.866,0.132-1.291
			l-1.585-3.224c-0.189-0.397-0.154-0.867,0.084-1.225c0.063-0.092,0.138-0.181,0.227-0.258c2.188-1.834,3.98-4.086,5.288-6.629
			c0.218-0.435,0.681-0.682,1.153-0.653c0.066,0.005,0.137,0.016,0.205,0.032l4.164,1.027c0.604,0.149,1.222-0.182,1.438-0.771
			l0.042-0.115l1.76-4.846C401.529,96.583,401.249,95.913,400.662,95.64z M362.236,90.644c0.141-0.845,0.365-1.709,0.687-2.586
			c0.614-1.669,2.343-3.841,3.843-4.796c0.159-0.104,0.319-0.201,0.48-0.298c9.854-5.8,20.943,3.326,17.047,14.28
			c-0.514,1.431-1.797,3.186-3.109,4.33c-0.309,0.261-0.613,0.496-0.904,0.675c-1.369,0.861-2.764,1.431-4.147,1.741
			C368.238,105.751,360.867,99.094,362.236,90.644z"/>
	</g>
	<path opacity="0.6" fill="#B2CBEA" enable-background="new    " d="M483.584,210.339c-1.622,0.618-12.364,1.751-11.922,3.118
		c0.443,1.365,7.951,2.744,11.844,1.006c0,0-3.159,11.581-9.075,11.717c-5.917,0.135-8.154-3.289-11.811-3.138
		c-3.655,0.147-6.188,1.44-4.261,2.206s7.979-0.621,11.197,1.529c0.473,0.314,0.932,0.611,1.352,0.893
		c0.254,0.17,0.494,0.334,0.717,0.494h-21.523c0.003-0.174-0.001-0.341-0.004-0.494c-0.02-0.908-0.097-1.43-0.097-1.43
		s-11.139-4.637-7.201-13.188c0,0,3.324-5.36,7.354-7.114c0,0-0.829,12.155,1.433,12.17c2.263,0.019-0.047-13.612-0.047-13.612
		s10.378-6.62,14.747-6.713c0,0-5.46,12.421-3.265,11.877s8.477-13.204,8.477-13.204s11.036-3.438,13.638,3.063
		C487.737,206.018,485.206,209.723,483.584,210.339z"/>
	<path fill="#E0EAF7" d="M348.232,219.497c-4.758-4.837,2.557-13.376,2.557-13.376s13.65-0.721,14.98-2.475
		c1.332-1.752-11.789-1.672-11.789-1.672c1.771-3.869,11.651-10.59,11.651-10.59s11.188,7.332,12.048,5.303
		c0.861-2.026-10.234-5.983-10.234-5.983c3.113-2.925,9.15-3.825,9.15-3.825c9.104-0.216,8.907,11.536,8.907,11.536
		s3.931,2.458,9.959,2.659l0,0c0,0,1.17-0.064,2.94,0.207l-0.561,0.968c-0.304-0.071-0.604-0.131-0.9-0.174
		c0-0.003-0.002-0.003-0.004-0.003c-0.004,0-0.008-0.002-0.015-0.002c-0.187-0.021-0.452-0.049-0.78-0.08l0,0c0-0.002,0,0,0,0
		c-0.748-0.043-1.287-0.09-1.67-0.145c0,0,0,0-0.002-0.002c-2.318-0.172-5.412-0.273-6.398,0.288c0,0-0.088-0.194-0.322-0.465
		c0.104,0.149,0.21,0.304,0.322,0.465c2.57,3.72-1.637,12.334-5.25,16.392c-3.611,4.057-3.741,1.291-4.403-2.416
		c-0.662-3.711,2.905-8.586,2.974-10.604c0.067-2.019-2.059-0.254-3.604,2.955c-1.546,3.211,0.622,6.535-1.783,11.772
		c-2.405,5.236-13.896,3.586-13.896,3.586c3.047-2.81,4.727-10.055,3.688-10.978c-1.039-0.926-6.197,8.24-7.372,9.452
		C357.251,223.506,352.989,224.335,348.232,219.497z"/>
	<path fill="#E0EAF7" d="M349.794,162.561c1.133-4.69,8.995-3.444,8.995-3.444s5.527,8.007,7.08,8.161
		c1.551,0.152-3.396-7.774-3.396-7.774c2.988-0.371,10.717,3.112,10.717,3.112s-0.23,9.52,1.31,9.285
		c1.54-0.235-0.224-8.439-0.224-8.439c2.922,0.795,5.716,4.118,5.716,4.118c3.526,5.44-3.61,9.707-3.61,9.707
		s-0.009,3.303,2.12,7.03l0,0c0,0,0.476,0.687,0.974,1.861l-0.791,0.021c-0.069-0.211-0.146-0.415-0.229-0.609
		c0-0.001,0-0.003-0.001-0.005c-0.002-0.003-0.003-0.005-0.004-0.008c-0.059-0.121-0.141-0.295-0.243-0.505l0,0l0,0
		c-0.255-0.469-0.427-0.814-0.536-1.065c-0.001-0.001-0.002-0.001-0.002-0.003c-0.764-1.468-1.855-3.383-2.563-3.771
		c0,0,0.086-0.127,0.16-0.367c-0.052,0.115-0.104,0.238-0.16,0.367c-1.274,2.947-8.023,3.611-11.813,2.938
		c-3.788-0.677-2.173-1.788-0.189-3.574c1.981-1.785,6.244-1.441,7.481-2.154s-0.614-1.344-3.122-1.08
		c-2.506,0.26-3.693,2.814-7.742,3.313c-4.047,0.495-7.341-7.086-7.341-7.086c2.825,0.799,7.808-0.887,7.976-1.863
		c0.166-0.976-7.269-0.679-8.437-0.938C350.752,169.523,348.662,167.248,349.794,162.561z"/>
	<path opacity="0.5" fill="#B2CBEA" enable-background="new    " d="M481.514,177.546c4.761-4.056-1.266-12.494-1.266-12.494
		s-12.477-1.772-13.558-3.491c-1.081-1.718,10.962-0.574,10.962-0.574c-1.313-3.696-9.845-10.675-9.845-10.675
		s-10.864,5.82-11.491,3.889c-0.626-1.935,9.883-4.661,9.883-4.661c-2.622-2.941-8.092-4.26-8.092-4.26
		c-8.343-0.939-9.112,9.866-9.112,9.866s-3.812,1.938-9.361,1.629l0,0c0,0-1.069-0.152-2.72-0.049l0.438,0.935
		c0.286-0.042,0.564-0.071,0.841-0.086c0.001-0.001,0.004-0.001,0.006-0.001c0.004,0,0.007,0,0.013,0
		c0.173-0.006,0.419-0.01,0.722-0.012c0,0,0,0,0.001,0h0.002c0.688,0.021,1.189,0.021,1.545,0.004c0,0,0,0,0.002,0
		c2.144,0.029,4.991,0.189,5.852,0.785c0,0,0.097-0.17,0.333-0.399c-0.105,0.128-0.217,0.261-0.333,0.399
		c-2.661,3.205,0.506,11.459,3.495,15.479c2.988,4.021,3.332,1.491,4.24-1.858c0.906-3.354-1.975-8.121-1.873-9.979
		c0.103-1.859,1.911-0.067,3.069,3.008c1.16,3.073-1.101,5.95,0.687,10.954c1.787,5.006,12.469,4.426,12.469,4.426
		c-2.57-2.827-3.525-9.617-2.497-10.38c1.03-0.765,5.023,8.073,6.005,9.28C472.906,180.488,476.754,181.6,481.514,177.546z"/>
	<g>
		<g id="man_1_">
			<path fill="#FAB17E" d="M363.171,132.293c-0.521,1.402-1.42,3.028-2.362,3.432c-1.07,0.459-1.518,1.107-1.518,1.107l-0.863-0.504
				l-1.031-0.603c0,0,0.022-0.115,0.073-0.302c0.052-0.187,0.128-0.447,0.233-0.735c0,0,0.314-0.408,0.122-0.921
				c-0.194-0.513-0.155-1.306,0.176-1.79s0.649-1.673,0.851-1.639c0.482,0.083-0.238,1.721-0.031,2.023
				c0.187,0.275,0.421,0.182,0.464,0.159c0.003-0.001,0.006-0.002,0.008-0.003c1.354-0.598,2.997-3.822,3.724-3.387
				C363.286,129.292,363.393,131.696,363.171,132.293z"/>
			<g>
				<path fill="#2B488C" d="M358.484,134.245l1.697,1.196c0.119,0.085,0.286,0.056,0.371-0.064l4.346-6.21
					c0.084-0.12,0.056-0.288-0.064-0.373l-1.695-1.196c-0.121-0.084-0.287-0.055-0.371,0.065l-4.347,6.21
					C358.337,133.993,358.366,134.16,358.484,134.245z"/>
				<path fill="#243862" d="M360.039,135.341l0.994,0.701c0.091,0.064,0.218,0.042,0.281-0.049l4.42-6.314
					c0.063-0.091,0.041-0.22-0.049-0.284l-0.996-0.701c-0.09-0.065-0.217-0.043-0.281,0.049l-4.418,6.314
					C359.926,135.148,359.948,135.275,360.039,135.341z"/>
			</g>
			<path fill="#243862" d="M334.15,125.334c0,0,8.632,15.119,11.764,17.9l11.482-8.596c0,0,1.664,0.512,2.395,2.193
				c0,0-6.973,14.267-13.837,14.869c-6.865,0.604-16.5-17.097-16.5-17.097L334.15,125.334z"/>
			<g>
				<path fill="#243862" d="M314.619,228.164h-4.987c-0.628-0.342-1.188-1.125-1.364-2.295c-0.242-1.612-2.043-2.492-2.434-3.813
					c-0.389-1.318,1.605-3.179,1.605-3.179l0.334-0.433l0.349-0.447l3.31,0.783c0,0,0.082,0.791,0.133,1.8
					c0.035,0.728,0.055,1.567,0.015,2.306c-0.099,1.76,0.489,3.655,2.047,3.998C314.775,227.139,314.725,227.823,314.619,228.164z"
					/>
				<path fill="#243862" d="M343.563,228.164h-11.404c-0.549-0.672-0.348-3.152-0.264-3.962c0.018-0.164,0.027-0.259,0.027-0.259
					s3.896-3.129,4.432-0.733c0.016,0.076,0.035,0.149,0.057,0.222c0.674,2.241,3.697,3.26,5.443,3.543
					C342.986,227.159,343.407,227.751,343.563,228.164z"/>
				<path fill="#F89748" d="M341.389,164.23c0,0-0.591,7.41-1.285,16.316c-0.945,12.1-2.082,26.962-2.194,29.776
					c-0.193,4.89-0.974,12.71-0.974,12.71s-1.849,1.857-5.549,1.074c0,0-3.298-11.164-4.238-22.976
					c-0.016-0.194-0.028-0.389-0.043-0.584c-0.877-12.024-2.239-37.345-2.239-37.345L341.389,164.23z"/>
				<path fill="#ED7E2A" d="M341.389,164.23c0,0-0.591,7.41-1.285,16.316l-12.955,20.586c-0.016-0.193-0.028-0.389-0.043-0.584
					c-0.877-12.023-2.239-37.345-2.239-37.345L341.389,164.23z"/>
				<path fill="#F89748" d="M338.688,165.111c0,0-10.658,26.834-17.666,39.445c-7.01,12.611-9.199,16.131-9.199,16.131
					s-4.016-1.615-4.381-2.713c0,0,2.681-24.347,7.373-30.279c2.652-3.354,5.769-13.418,5.914-16.938
					c0.146-3.519,0.949-10.483,0.949-10.483L338.688,165.111z"/>
			</g>
			<path fill="#FAB17E" d="M336.034,125.992c-4.165,1.32-11.373-2.243-11.373-2.243s3.841-2.896,3.64-8.913l3.223,2.606l2.188,1.771
				c0,0-0.009,1.043-0.249,2.873c-0.063,0.48-0.142,1.018-0.239,1.604C335.009,124.675,336.034,125.992,336.034,125.992z"/>
			<path fill="#EE985E" d="M333.71,119.213c0,0-0.009,1.043-0.249,2.873c-2.423-0.417-5.173-4.353-5.173-4.353
				c1.233-0.358,2.315-0.423,3.233-0.291L333.71,119.213z"/>
			<path fill="#FAB17E" d="M334.982,119.114c0,0-6.879,1.147-7.524-3.167c-0.646-4.314-1.969-7.071,2.396-7.986
				c4.367-0.915,5.469,0.602,6.033,1.99C336.45,111.337,336.757,118.704,334.982,119.114z"/>
			<path fill="#2B488C" d="M341.85,164.85c-0.127,0.104-0.271,0.168-0.438,0.168c-1.563-0.022-6.125,0.853-9.984,0.453
				c-3.254-0.314-6.134-1.283-9.227-2.676c-0.411-0.184-1.354-0.689-1.334-1.15c0.014-0.506,0.063-1.236,0.126-2.158
				c0.219-3.209,0.601-8.721,0.229-15.083c-0.066-1.184-0.102-2.359-0.105-3.516c-0.032-8.622,1.671-16.204,5.091-18.771
				c0.293-0.211,2.086,0.67,3.733,1.486c1.522,0.753,3.047,0.837,4.484,0.545l1.439,1.276c1.751,1.634,3.671,3.855,4.505,7.228
				c0.71,2.869,1.126,8.044,1.354,13.404c0.104,2.433,0.188,4.884,0.211,7.208v0.084c0.02,0.229,0.02,0.481,0.02,0.713
				C342.036,160.029,341.952,164.766,341.85,164.85z"/>
			<path fill="#243862" d="M320.991,159.484c0.219-3.207,0.601-8.719,0.229-15.083c-0.068-1.184-0.103-2.359-0.106-3.516
				c1.426-3.471,2.59-5.988,2.59-5.988h3.592C327.295,134.898,329.928,152.962,320.991,159.484z"/>
			<g>
				<path fill="#243862" d="M302.594,179.956l15.317,2.19c1.993,0.285,3.856-1.119,4.142-3.121l0.946-6.666
					c0.284-2.004-1.115-3.875-3.108-4.16l-15.317-2.191c-1.993-0.285-3.856,1.119-4.142,3.123l-0.945,6.665
					C299.201,177.799,300.6,179.67,302.594,179.956z"/>
				<path fill="#2B488C" d="M320.756,170.188L320.756,170.188c-0.431-1.082-1.359-1.937-2.538-2.227h-0.001
					c-0.001,0-0.002,0-0.003-0.001c-0.114-0.026-0.231-0.052-0.354-0.067l-3.049-0.438l0.203-1.438
					c0.047-0.319-0.037-0.643-0.23-0.901c-0.195-0.261-0.479-0.431-0.799-0.476l-0.797-0.115l-3.201-0.457l-0.577-0.084
					c-0.661-0.094-1.277,0.369-1.371,1.035l-0.204,1.438l-5.266-0.754c-2-0.288-3.87,1.123-4.157,3.133l-0.956,6.744
					c-0.285,2.009,1.119,3.888,3.12,4.173l15.291,2.189c0.271,0.037,0.536,0.046,0.797,0.025h0.001c0.001,0,0.001,0,0.002,0
					c0.419-0.033,0.821-0.138,1.193-0.303c1.125-0.498,1.978-1.551,2.162-2.855l0.957-6.744
					C321.073,171.408,320.984,170.768,320.756,170.188z M308.791,165.127c0.027-0.203,0.186-0.354,0.375-0.385
					c0.045-0.008,0.09-0.01,0.137-0.002l0.682,0.097l2.521,0.362l1.374,0.195c0.247,0.035,0.419,0.267,0.385,0.515l-0.205,1.438
					l-5.471-0.783L308.791,165.127z"/>
			</g>
			<path fill="#FAB17E" d="M314.241,160.105c0,0-0.806,1.074-0.837,1.506c-0.217,2.914,1.111,3.316-2.322,4.937
				c0,0-1.466,0.562-1.49-0.58c-0.025-1.144,1.018-1.163,0.826-2.763c-0.22-1.846-0.197-1.861,1.008-2.826l0.799-1.326
				L314.241,160.105z"/>
			<path fill="#2B488C" d="M312.195,160.932c1.294,0.252,2.695,0.148,2.695,0.148s3.84-11.911,4.334-12.999
				s11.404-13.968,11.404-13.968l-4.545-11.424c0,0-11.801,19.796-12.999,22.58c-1.979,4.595-2.668,14.902-2.668,14.902
				S311.182,160.73,312.195,160.932z"/>
			<path fill="#2B488C" d="M327.452,115.533c0,0,0.706-0.118,0.592-1.095s-0.112-2.254,0.679-2.015
				c0.791,0.237,0.83,0.873,1.154,0.502c0.326-0.372,0.331-1.936,2.684-2.044c2.354-0.108,3.31,0.713,4.402,0.23
				c1.096-0.482,1.152-2.146,1.152-2.146s-0.311,0.594-0.781,0.783c0,0,1.825-2.507-0.288-4.226
				c-2.112-1.72-4.269-0.593-5.491-0.519c-2.693,0.164-4.435,0.326-5.313,2.104C325.361,108.885,325.725,113.821,327.452,115.533z"
				/>
			<path fill="#FAB17E" d="M312.973,161.387c0,0,0.775,0.812,0.823,1.147c0.157,1.084,0.519,1.551,0.337,1.67
				c-0.375,0.245-0.872-0.56-1.107-1.276C312.787,162.207,312.973,161.387,312.973,161.387z"/>
		</g>
	</g>
	<g>
		<g>
			<g>
				<g>
					<path fill="#243862" d="M501.021,108.431c0,0,2.055,0,4.182,1.364c1.672,1.07,5.453,6.491,6.697,9.716
						c1.244,3.225-1.352,4.622,0.504,6.472c1.833,1.828,4.338,6.988,0.089,9.521c-2.401,1.43-6.673-2.994-9.417-3.619
						c-2.742-0.625-10.086,5.056-12.019,3.27c-1.931-1.787-3.862-4.854,1.938-8.739c1.499-1.003-5.104-1.631-2.277-8.823
						C492.665,112.635,496.127,108.29,501.021,108.431z"/>
					<path fill="#FAB17E" d="M480.147,139.561c0-0.072,1.058-2.269,0.721-2.438c-0.336-0.169-0.94-0.144-1.01,0.242
						C479.789,137.749,480.147,139.561,480.147,139.561z"/>
					<path fill="#243862" d="M495.938,112.26c0,0,5.177-5.237,8.461-0.447c0,0,2.026-0.593,2.914,3.595
						c0.902,4.272-0.479,6.884-1.941,6.082c-0.938-0.514-1.647,1.134-1.647,1.134L495.938,112.26z"/>
					<path fill="#FAB17E" d="M488.244,152.092c-4.933-1.825-9.681-10.298-9.681-10.298l1.556-1.094
						c1.295,1.902,7.122,5.557,7.122,5.557c0.134-1.604,0.326-3.06,0.564-4.377c1.617-8.956,5.318-11.609,6.313-12.172
						c0.159-0.092,0.249-0.127,0.249-0.127s-0.003,0.066-0.011,0.191c-0.015,0.269-0.046,0.812-0.099,1.557
						C493.875,136.873,492.365,153.617,488.244,152.092z"/>
					<path fill="#FAB17E" d="M512.078,161.234c-2.438-5.484-3.604-7.037-3.645-8.764c-0.031-1.363,0.639-2.838,1.94-6.449
						c0.307-0.853,0.518-1.727,0.648-2.611c1.028-6.963-2.997-14.582-5.488-15.095c-1.077-0.261-1.853-2.607-1.838-6.659
						l-0.313,0.062l-5.247,1.043c0,0,0.119,1.658,0.121,3.221c0.005,1.302,0.222,2.672-0.367,2.691
						c-0.378,0.034-0.602,0.057-0.602,0.057s-4.374,6.103-4.742,11.776c-0.368,5.677,3.505,8.14-0.028,19.482
						C488.913,171.572,513.423,164.27,512.078,161.234z"/>
					<path fill="#E9955C" d="M498.139,122.762c0,0,0.119,1.658,0.121,3.221c2.938-0.083,4.489-2.772,5.126-4.264L498.139,122.762z"
						/>
					<path fill="#243862" d="M503.928,121.145c0,0,1.538-2.441,1.907-4.528c0.265-1.491-0.492-7.016-6.021-6.221
						c0,0-1.605,0.159-3.113,1.183c-1.201,0.814-2.934,2.572-0.996,7.394l0.502,1.629L503.928,121.145z"/>
					<path fill="#FAB17E" d="M497.158,124.241c0,0,6.946,0.115,6.951-4.229c0.005-4.347,0.904-7.259-3.53-7.516
						c-4.437-0.258-5.299,1.4-5.652,2.851C494.574,116.796,495.35,124.1,497.158,124.241z"/>
					<path fill="#243862" d="M497.415,112.389c0,0,1.901,5.099,4.821,5.852c2.918,0.754,4.185-0.031,4.185-0.031
						s-2.238-1.786-2.703-4.904C503.718,113.306,498.85,109.962,497.415,112.389z"/>
					<path fill="#243862" d="M497.887,112.803c0,0-0.957,0.574-1.76,1.801c-0.634,0.969-1.265,1.83-1.171,3.75
						c0,0-1.433-3.465,0.178-5.425C496.842,110.851,497.887,112.803,497.887,112.803z"/>
					<path fill="#183660" d="M505.926,213.887c-1.748,6.98-4.379,12.336-4.379,12.336l-2.29-0.16c0,0,1.123-5.367,1.059-12.619
						c-0.045-5.07-0.671-11.063-2.664-16.784c-6.854-19.661-5.746-33.968-5.746-33.968l12.89,1.514l0.602,0.07
						c0.054,5.945,0.205,14.018,0.34,20.328c0.119,5.679,0.223,9.931,0.223,9.931C508.436,199.893,507.536,207.459,505.926,213.887z
						"/>
					<path fill="#FAB17E" d="M521.111,167.063l-2.084,0.629c0,0-6.881-11.463-7.507-14.445c-0.203-0.973-0.703-2.915-1.287-5.092
						c-1.208-4.51-2.769-10.026-2.769-10.026l-0.514-2.234l-1.751-7.617c0,0,3.354,0.345,5.313,1.168
						c0.649,0.272,1.146,0.598,1.318,0.979c1.44,3.182,2.88,11.212,3.891,16.941c0.563,3.189,0.993,5.669,1.218,6.193
						C517.567,155.023,519.479,163.086,521.111,167.063z"/>
					<path fill="#1C478A" d="M513.322,212.771c-0.742,7.943-4.006,13.08-4.006,13.08l-1.096,0.799c0,0-1.036-5.596-1.769-12.254
						c-0.697-6.33-1.655-13.026-2.737-15.071c-4.3-8.106-5.594-38.709-5.594-38.709l13.07-0.652c1.313,2.22,1.887,5.858,2.021,9.998
						c0.344,10.444-2.101,24.063-2.466,26.035c0,0,0,0-0.001,0.003c-0.029,0.152,0.015,0.303,0.086,0.439
						C513.434,201.609,513.81,207.521,513.322,212.771z"/>
					<path fill="#F89748" d="M513.716,165.198c0.022,0.44-0.002,0.795-0.082,1.049c-0.277,0.878-1.231,1.278-3.542,1.04
						c-1.411-0.148-2.04-2.523-2.319-4.551c-0.849,2.898-2.034,4.525-3.568,4.869c-2.239,0.5-13.529,1.877-14.27-3.513
						c-0.813-5.93,1.621-16.427,1.757-22.087c-0.332-2.007-0.446-3.749-0.41-5.245c0.095-4.031,1.388-6.374,2.295-7.284
						c1.6-0.612,4.139-0.795,4.129-0.779c-0.19,0.342-0.838,2.329-0.73,3.343c0.334,3.147,3.568,2.808,6.412,0.904
						c2.101-1.406,3.289-4.472,3.289-4.472s4.194,0.344,5.18,1.957c1.882,3.086,3.35,11.292,4.525,17.061
						c-2.853,1.579-5.346,1.109-6.12,0.9C511.272,155.037,513.565,162.17,513.716,165.198z"/>
					<path fill="#FAB17E" d="M480.119,140.699c0-0.215,0.18-3.332-0.372-3.987c-0.553-0.654-1.681-1.585-2.036-1.557
						c-0.354,0.029-1.741,1.88-1.325,3.299c0.418,1.418,2.178,3.339,2.178,3.339L480.119,140.699z"/>
					<g>
						<path fill="#F0A350" d="M482.652,136.888l-3.218,0.967c-0.104,0.033-0.219-0.028-0.25-0.135l-1.839-6.159
							c-0.03-0.106,0.028-0.22,0.137-0.251l3.216-0.969c0.105-0.031,0.22,0.029,0.251,0.137l1.839,6.158
							C482.819,136.743,482.759,136.855,482.652,136.888z"/>
						<path fill="#D76927" d="M481.816,137.138l-2.917,0.878c-0.189,0.057-0.389-0.05-0.445-0.241l-1.749-5.858
							c-0.056-0.19,0.051-0.39,0.24-0.447l2.919-0.878c0.188-0.057,0.388,0.051,0.443,0.24l1.748,5.858
							C482.112,136.881,482.005,137.082,481.816,137.138z"/>
					</g>
					<g>
						<path fill="#1B2D4C" d="M502.866,228.15h-1.462c-0.49-0.078-0.854-0.221-1.354-0.287c-0.765-0.1-1.115,0.214-1.185,0.287
							c-0.011,0.01-0.016,0.014-0.016,0.014h-6.212c-0.156-0.225-0.007-0.742,0.142-1.124c0.099-0.261,0.313-0.457,0.581-0.534
							c0.658-0.191,1.958-0.363,3.146-1.443c0.67-0.605,3.232-2.233,3.232-2.233l0.014-0.003c0.056,0.002,0.324,0.084,1.489,1.072
							c0.603,0.51,1.63-0.721,1.63-0.721s0.191,0.16,0.336,0.459c0.116,0.234,0.199,0.559,0.134,0.957
							c-0.094,0.563,0.206,1.607,0.445,2.313c0.145,0.429,0.267,0.733,0.267,0.733S504.125,227.991,502.866,228.15z"/>
						<path fill="#486BA5" d="M503.209,223.637c-0.35,0.247-1.087,0.732-1.575,0.797c-0.659,0.086-1.894-1.604-1.894-1.604
							l0.014-0.003c0.056,0.002,0.324,0.084,1.489,1.072c0.603,0.51,1.63-0.721,1.63-0.721S503.065,223.338,503.209,223.637z"/>
						<path fill="#3C6097" d="M502.866,228.15h-1.462c-0.49-0.078-0.854-0.221-1.354-0.287c-0.765-0.1-1.115,0.214-1.185,0.287
							c-0.011,0.01-0.016,0.014-0.016,0.014h-6.212c-0.156-0.225-0.007-0.742,0.142-1.124c0.188-0.169,0.241,0.731,0.346,0.874
							c0.104,0.145,5.069,0.053,5.354-0.157c0.285-0.209,1.146-0.575,2.346-0.288c1.043,0.252,2.582-0.391,2.962-0.563
							c0.145,0.429,0.267,0.732,0.267,0.732S504.125,227.991,502.866,228.15z"/>
					</g>
					<g>
						<path fill="#243862" d="M510.671,228.15h-1.463c-0.489-0.078-0.852-0.221-1.354-0.287c-0.765-0.1-1.115,0.214-1.185,0.287
							c-0.01,0.01-0.015,0.014-0.015,0.014h-6.213c-0.156-0.225-0.007-0.742,0.142-1.124c0.099-0.261,0.313-0.457,0.581-0.534
							c0.659-0.191,1.958-0.363,3.146-1.443c0.671-0.605,3.232-2.233,3.232-2.233l0.014-0.003c0.057,0.002,0.323,0.084,1.489,1.072
							c0.604,0.51,1.629-0.721,1.629-0.721s0.192,0.16,0.337,0.459c0.116,0.234,0.2,0.559,0.134,0.957
							c-0.093,0.563,0.207,1.607,0.444,2.313c0.146,0.429,0.268,0.733,0.268,0.733S511.93,227.991,510.671,228.15z"/>
						<path fill="#486BA5" d="M511.014,223.637c-0.35,0.247-1.086,0.732-1.573,0.797c-0.66,0.086-1.896-1.604-1.896-1.604
							l0.014-0.003c0.057,0.002,0.323,0.084,1.489,1.072c0.604,0.51,1.629-0.721,1.629-0.721S510.869,223.338,511.014,223.637z"/>
						<path fill="#486BA5" d="M510.671,228.15h-1.463c-0.489-0.078-0.852-0.221-1.354-0.287c-0.765-0.1-1.115,0.214-1.185,0.287
							c-0.01,0.01-0.015,0.014-0.015,0.014h-6.213c-0.156-0.225-0.007-0.742,0.142-1.124c0.188-0.169,0.241,0.731,0.345,0.874
							c0.105,0.145,5.068,0.053,5.355-0.157c0.287-0.209,1.146-0.575,2.346-0.288c1.044,0.252,2.581-0.391,2.961-0.563
							c0.146,0.429,0.268,0.732,0.268,0.732S511.93,227.991,510.671,228.15z"/>
					</g>
					<path fill="#EE7E28" d="M513.716,165.198c-1.585-2.509-2.515-5.546-3.755-9.021c-3.198-8.955-2.713-13.85-1.937-14.029
						c0.773-0.179,2.234,6.244,2.234,6.244C511.272,155.037,513.565,162.17,513.716,165.198z"/>
					<path fill="#F89748" d="M492.38,143.085c-0.251-0.015-0.494-0.053-0.729-0.111c-0.054-0.012-0.107-0.027-0.16-0.042
						c-0.632-0.182-1.203-0.501-1.692-0.854c-1.061-0.761-2.234-2.067-2.234-2.067c2.068-9.247,6.014-10.533,6.014-10.533
						S494.833,143.216,492.38,143.085z"/>
					<path fill="#FAB17E" d="M477.379,135.395c0,0,1.339-2.069,1.667-1.954c0.468,0.165-1.214,2.79-1.214,2.79
						s1.246-1.961,1.44-1.814c0.442,0.335-0.263,1.568-0.964,2.514c0,0,1.253-1.152,1.294-0.945
						c0.145,0.727-1.375,2.488-1.375,2.488l-0.85-1.946L477.379,135.395L477.379,135.395z"/>
					<path fill="#FAB17E" d="M476.375,137.316c0.064-0.254,0.393-5.195,0.531-4.726c0.14,0.468,0.473,3.059,0.473,3.059
						L476.375,137.316z"/>
					<path fill="#F89748" d="M506.729,139.654l2.558,9.339c0,0,5.329,0.369,7.093-1.501l-3.224-8.314L506.729,139.654z"/>
					<path fill="#EE7E28" d="M491.649,142.974c-0.054-0.012-0.107-0.027-0.16-0.042c-0.632-0.182-1.203-0.501-1.692-0.854
						c0.127-0.282,0.329-0.628,0.631-0.91c0.623-0.583,1.141-2.965,1.355-2.769C491.997,138.593,491.649,142.974,491.649,142.974z"
						/>
				</g>
			</g>
		</g>
		<path fill="#FAB17E" d="M521.111,167.063c0,0,2.518,1.682,2.9,2.39c0.386,0.708,1.281,3.313,1.281,3.313s-0.64,0.096-1.281-1.029
			c-0.641-1.125-2.756-1.029-3.461-1.643c-0.705-0.611-1.523-2.402-1.523-2.402L521.111,167.063z"/>
		<path fill="#FAB17E" d="M519.301,168.246c0,0,0.418,1.979,0.931,2.557c0.514,0.58,1.219,1.547,1.508,1.289
			c0.287-0.258-0.321-2.414-0.321-2.414L519.301,168.246z"/>
		<path fill="#FAB17E" d="M523.66,169.678c0.063,0.096,2.274,2.456,2.274,2.456s-0.801,0.364-1.024,0
			C524.686,171.77,523.66,169.678,523.66,169.678z"/>
	</g>
	<path fill="#B2CBEA" d="M457.325,88.176v131.205c0,4.311-3.479,7.805-7.771,7.805H381.26c-4.293,0-7.771-3.494-7.771-7.805V88.176
		c0-4.309,3.478-7.802,7.771-7.802h68.295C453.847,80.374,457.325,83.868,457.325,88.176z"/>
	<g>
		<path fill="#F9DDBF" d="M450.807,144.747c0,7.082-2.062,13.681-5.616,19.222c-1.162,1.811-2.483,3.508-3.945,5.073
			c-1.539,1.651-3.234,3.156-5.063,4.485c-0.168,0.125-0.337,0.246-0.508,0.363c-5.739,4.032-12.726,6.398-20.261,6.398
			c-5.213,0-10.161-1.131-14.616-3.161c-0.551-0.252-1.094-0.519-1.631-0.797c-1.245-0.646-2.448-1.366-3.601-2.151
			c-1.322-0.902-2.58-1.89-3.767-2.957c-7.231-6.507-11.78-15.959-11.78-26.477c0-19.63,15.847-35.543,35.395-35.543
			C434.959,109.204,450.807,125.117,450.807,144.747z"/>
		<g>
			<g>
				<path fill="#243862" d="M445.189,163.969c-1.162,1.811-2.483,3.508-3.945,5.073c-1.539,1.651-3.234,3.156-5.063,4.485
					c-0.168,0.125-0.337,0.246-0.508,0.363c-4.208-0.824-9.312-6.211-13.641-8.479c-0.773-0.402-1.521-0.708-2.233-0.87
					c-2.512-0.572-6.899,1.428-11.344,3.497c-2.651,1.233-5.322,2.493-7.628,3.246c-0.021,0.007-0.039,0.016-0.061,0.021
					c-2.078,0.674-3.856,0.932-5.05,0.383c-0.235-0.106-0.448-0.246-0.635-0.42c-0.785-0.728-1.571-1.56-2.235-2.485
					c-2.688-3.753-3.352-9.083,6.221-15.489c3.08-2.063-10.866-1.379-5.059-16.171c4.006-10.196,11.502-21.108,21.563-20.818
					c0,0,4.226,0,8.599,2.804c3.439,2.203,8.347,12.228,10.908,18.859c2.562,6.633-2.445,10.837,1.595,14.403
					C440.889,156.089,444.401,160.148,445.189,163.969z"/>
				<path fill="#243862" d="M405.133,124.146c0,0,10.646-10.771,17.401-0.921c0,0,4.171-1.217,5.992,7.396
					c1.858,8.787-0.983,14.158-3.991,12.508c-1.93-1.06-3.391,2.332-3.391,2.332L405.133,124.146z"/>
				<path fill="#FAB17E" d="M436.183,173.527c-0.168,0.125-0.337,0.246-0.508,0.363c-5.739,4.032-12.726,6.398-20.261,6.398
					c-5.213,0-10.161-1.131-14.616-3.161c-0.551-0.252-1.094-0.519-1.631-0.797c0.44-1.679,0.993-3.323,1.604-4.901v-0.002
					c0.019-0.048,0.037-0.097,0.058-0.145c2.899-7.42,7.09-13.264,7.09-13.264s0.007-0.002,0.022-0.002
					c0.006-0.002,0.012-0.002,0.021-0.004c0.013,0,0.022-0.002,0.038-0.005h0.004c0.012-0.001,0.025-0.002,0.043-0.004
					c0.018-0.003,0.036-0.004,0.059-0.006c0.06-0.004,0.133-0.011,0.216-0.021c0.026-0.004,0.052-0.006,0.077-0.008
					c0.023-0.002,0.045-0.005,0.066-0.006c0.023-0.004,0.044-0.005,0.066-0.007c0.016,0,0.031-0.002,0.05-0.004
					c0.019-0.001,0.036-0.003,0.053-0.005c0.153-0.014,0.327-0.03,0.522-0.049c1.342-0.227,0.764-2.855,0.756-5.533
					c0-0.604-0.012-1.213-0.025-1.805c-0.002-0.1-0.006-0.195-0.008-0.294c-0.003-0.09-0.005-0.177-0.008-0.265
					c-0.003-0.076-0.005-0.152-0.008-0.227c0-0.03-0.002-0.06-0.004-0.087c-0.006-0.19-0.012-0.377-0.021-0.56
					c-0.007-0.151-0.012-0.3-0.018-0.442c-0.029-0.691-0.062-1.306-0.091-1.794c-0.002-0.055-0.006-0.109-0.01-0.162
					c0-0.007,0-0.011,0-0.016c-0.002-0.032-0.002-0.064-0.006-0.097c-0.005-0.08-0.011-0.154-0.016-0.223
					c-0.003-0.05-0.004-0.096-0.008-0.14c-0.004-0.059-0.008-0.113-0.012-0.164c0-0.008,0-0.017,0-0.023
					c-0.006-0.077-0.01-0.142-0.013-0.192c-0.002-0.018-0.003-0.034-0.005-0.05c-0.005-0.056-0.007-0.085-0.007-0.085l10.18-2.024
					l0.614-0.121l0.642-0.129v0.009c-0.003,0.673,0.01,1.324,0.03,1.952c0.247,7.135,1.959,11.27,3.269,11.615
					c0.493,0.252,1.598,0.395,2.662,0.52c1.118,0.131,2.197,0.244,2.489,0.443C432.646,160.123,435.153,166.186,436.183,173.527z"/>
				<path fill="#E9955C" d="M409.66,145.745c0,0,0.244,3.41,0.252,6.623c6.04-0.17,9.23-5.702,10.538-8.769L409.66,145.745z"/>
				<path fill="#243862" d="M421.565,142.419c0,0,3.165-5.022,3.925-9.316c0.542-3.065-1.015-14.429-12.383-12.792
					c0,0-3.303,0.328-6.406,2.432c-2.469,1.674-6.032,5.291-2.047,15.206l1.033,3.35L421.565,142.419z"/>
				<path fill="#FAB17E" d="M407.645,148.787c0,0,14.286,0.237,14.298-8.701c0.009-8.938,1.858-14.927-7.263-15.457
					c-9.121-0.529-10.896,2.88-11.623,5.861C402.329,133.474,403.928,148.495,407.645,148.787z"/>
				<path fill="#243862" d="M408.171,124.411c0,0,3.912,10.486,9.916,12.036c6.005,1.551,8.607-0.065,8.607-0.065
					s-4.604-3.674-5.561-10.087C421.135,126.295,411.123,119.42,408.171,124.411z"/>
				<path fill="#243862" d="M409.143,125.263c0,0-1.968,1.18-3.617,3.704c-1.305,1.995-2.604,3.766-2.409,7.714
					c0,0-2.948-7.126,0.364-11.159C406.992,121.248,409.143,125.263,409.143,125.263z"/>
				<path fill="#F89748" d="M437.867,161.518c-2.553-3.418-10.813-3.955-10.813-3.955s0,0.002-0.001,0.004
					c-0.062,0.164-1.788,4.771-5.021,7.846c-0.493,0.47-1.021,0.902-1.582,1.277c-4.6,3.078-9.694,4.17-11.995,1.35
					c-0.625-0.768-1.045-1.823-1.19-3.208c-0.221-2.086,1.108-6.17,1.502-6.875c0.006-0.009-0.051-0.008-0.135-0.004
					c-0.017,0.002-0.033,0.004-0.053,0.005c-0.018,0.002-0.034,0.004-0.051,0.004c-0.021,0.002-0.043,0.003-0.065,0.007
					c-0.021,0.001-0.043,0.005-0.067,0.005c-0.024,0.002-0.049,0.006-0.076,0.008c-0.074,0.006-0.15,0.016-0.217,0.021
					c-0.021,0.002-0.039,0.003-0.058,0.006c-0.019,0.002-0.03,0.004-0.043,0.004H408c-0.016,0.002-0.025,0.004-0.038,0.006
					c-0.009,0.002-0.015,0.002-0.021,0.004c-0.017,0-0.022,0-0.022,0c-2.125,0.281-6.39,0.748-7.883,1.707c0,0,0,0-0.002,0
					c-0.086,0.045-3.863,2.025-7.187,9.055c-0.354,0.753-0.705,1.566-1.048,2.441c1.187,1.067,2.443,2.055,3.767,2.957
					c1.151,0.785,2.354,1.506,3.601,2.151c0.537,0.278,1.08,0.545,1.631,0.797c4.455,2.03,9.403,3.161,14.616,3.161
					c7.535,0,14.521-2.366,20.261-6.398c0.171-0.117,0.34-0.238,0.508-0.363c1.827-1.329,3.522-2.834,5.063-4.485
					C440.253,165.865,439.142,163.227,437.867,161.518z"/>
			</g>
		</g>
		<g opacity="0.5">
			<g>
				<g>
					<circle fill="#FFFFFF" cx="405.111" cy="131.029" r="0.786"/>
					<circle fill="#FFFFFF" cx="405.111" cy="141.434" r="0.786"/>
					<circle fill="#FFFFFF" cx="405.111" cy="136.42" r="0.786"/>
					<circle fill="#FFFFFF" cx="399.301" cy="136.42" r="0.786"/>
					<circle fill="#FFFFFF" cx="411.516" cy="131.029" r="0.786"/>
					<circle fill="#FFFFFF" cx="411.516" cy="136.42" r="0.786"/>
					<circle fill="#FFFFFF" cx="411.516" cy="141.434" r="0.786"/>
					<circle fill="#FFFFFF" cx="411.516" cy="146.748" r="0.786"/>
					<circle fill="#FFFFFF" cx="418.171" cy="136.42" r="0.786"/>
					<circle fill="#FFFFFF" cx="422.912" cy="136.42" r="0.786"/>
					<circle fill="#FFFFFF" cx="418.171" cy="141.434" r="0.786"/>
					<circle fill="#FFFFFF" cx="411.516" cy="125.638" r="0.786"/>
					<circle fill="#FFFFFF" cx="417.921" cy="131.029" r="0.786"/>
				</g>
				<g>
					<polygon fill="#FFFFFF" points="405.008,141.643 405.008,131.029 405.212,131.029 405.212,141.224 411.414,136.372 
						411.414,125.638 411.618,125.638 411.618,136.471 					"/>
				</g>
				<g>
					<path fill="#FFFFFF" d="M411.516,146.879l-6.688-5.547h6.586v-4.808h-6.584l6.686-5.626l6.758,5.476v4.805l4.5-4.757
						l-4.922-5.317l-6.334-5.333l-6.342,5.337l-5.723,5.312l5.387,4.774l-0.135,0.154l-5.557-4.925l5.894-5.469l6.476-5.45
						l6.479,5.456l5.056,5.463l-4.778,5.054v0.061h-0.065L411.516,146.879z M405.395,141.537l6.123,5.079l6.362-5.079H405.395z
						 M411.618,141.332h6.452v-4.862l-6.553-5.308l-6.127,5.157h6.228V141.332L411.618,141.332z"/>
				</g>
				<g>
					<polygon fill="#FFFFFF" points="411.618,146.748 411.414,146.748 411.414,141.383 417.674,136.67 417.795,136.834 
						411.618,141.486 					"/>
				</g>
			</g>
			<g>
				<rect x="399.795" y="136.318" fill="#FFFFFF" width="4.76" height="0.205"/>
			</g>
			<g>
				<rect x="412.302" y="136.318" fill="#FFFFFF" width="5.433" height="0.205"/>
			</g>
			<g>
				<polygon fill="#FFFFFF" points="418.27,136.096 417.828,131.131 405.445,131.131 405.445,130.926 418.016,130.926 
					418.473,136.078 				"/>
			</g>
			<g>
				<polygon fill="#FFFFFF" points="418.109,141.517 411.354,136.425 417.855,130.951 417.986,131.108 411.68,136.417 
					418.232,141.352 				"/>
			</g>
			<g>
				
					<rect x="404.242" y="133.473" transform="matrix(-0.7849 -0.6196 0.6196 -0.7849 646.0552 491.4208)" fill="#FFFFFF" width="8.162" height="0.204"/>
			</g>
			<g>
				<rect x="418.172" y="136.318" fill="#FFFFFF" width="4.996" height="0.205"/>
			</g>
		</g>
		<g>
			<g>
				<polygon fill="#FFFFFF" points="392.255,127.146 390.536,127.146 390.536,121.863 396.266,121.863 396.266,123.589 
					392.255,123.589 				"/>
			</g>
			<g>
				<polygon fill="#FFFFFF" points="439.152,127.381 437.433,127.381 437.433,123.354 433.892,123.354 433.892,121.626 
					439.152,121.626 				"/>
			</g>
			<g>
				<polygon fill="#FFFFFF" points="439.152,161.006 433.422,161.006 433.422,159.279 437.433,159.279 437.433,155.723 
					439.152,155.723 				"/>
			</g>
			<g>
				<polygon fill="#FFFFFF" points="395.796,161.242 390.536,161.242 390.536,155.486 392.255,155.486 392.255,159.516 
					395.796,159.516 				"/>
			</g>
		</g>
	</g>
	<path fill="#F89748" d="M445.306,215.121v11.637c0,0.145-0.003,0.286-0.008,0.428h-59.335c-0.006-0.142-0.009-0.283-0.009-0.428
		v-11.637c0-5.309,3.411-9.65,7.582-9.65h44.188C441.894,205.471,445.306,209.813,445.306,215.121z"/>
	<path fill="#2B488C" d="M449.555,228.164h-68.294c-4.821,0-8.745-3.939-8.745-8.783V88.177c0-4.843,3.924-8.783,8.745-8.783h68.294
		c4.823,0,8.746,3.94,8.746,8.783v131.204C458.301,224.225,454.378,228.164,449.555,228.164z M381.261,81.353
		c-3.747,0-6.796,3.062-6.796,6.824v131.204c0,3.764,3.049,6.824,6.796,6.824h68.294c3.748,0,6.796-3.063,6.796-6.824V88.177
		c0-3.763-3.048-6.824-6.796-6.824H381.261z"/>
	<g>
		<g>
			<polygon fill="#FFFFFF" points="415.284,219.301 411.465,215.867 412.538,214.662 415.005,216.882 418.419,211.977 
				419.738,212.902 			"/>
		</g>
		<g>
			<path fill="#FFFFFF" d="M415.602,222.938c-4.008,0-7.269-3.274-7.269-7.299c0-4.025,3.261-7.301,7.269-7.301
				s7.271,3.273,7.271,7.301C422.871,219.663,419.609,222.938,415.602,222.938z M415.602,208.633c-3.847,0-6.977,3.143-6.977,7.006
				s3.13,7.006,6.977,7.006c3.848,0,6.978-3.143,6.978-7.006S419.448,208.633,415.602,208.633z"/>
		</g>
	</g>
	<g>
		<g>
			<rect x="388.368" y="188.393" fill="#EBF3FB" width="55.021" height="0.494"/>
		</g>
		<g>
			<ellipse fill="#F89748" cx="388.368" cy="188.64" rx="1.801" ry="1.809"/>
			<ellipse fill="#F89748" cx="415.878" cy="188.64" rx="2.416" ry="2.426"/>
			<ellipse fill="#EBF3FB" cx="443.388" cy="188.64" rx="1.802" ry="1.809"/>
		</g>
		<rect x="388.368" y="188.393" fill="#F89748" width="27.471" height="0.494"/>
	</g>
	<path fill="#2F3652" d="M560.776,229.424H270.039c-0.232,0-0.421-0.189-0.421-0.422v-0.414c0-0.232,0.189-0.424,0.421-0.424
		h290.738c0.231,0,0.422,0.189,0.422,0.424v0.414C561.198,229.232,561.009,229.424,560.776,229.424z"/>
	<g>
		<g>
			<path fill="#EBF3FB" d="M380.333,100.704v-0.247h5.517l3.354-6.4h0.074c2.617,0,6.576-0.026,6.977-0.095l6.838-6.868h10.002
				v0.248h-9.9l-6.756,6.786c-0.059,0.114-0.481,0.136-3.637,0.162c-1.549,0.012-3.098,0.013-3.447,0.013l-3.355,6.401H380.333z"/>
		</g>
		<polygon fill="#EBF3FB" points="397.537,95.138 397.537,93.427 396.061,92.572 394.586,93.427 394.586,95.138 396.061,95.995 		
			"/>
		<polygon fill="#EBF3FB" points="404.693,88.326 404.693,86.615 403.219,85.759 401.741,86.615 401.741,88.326 403.219,89.182 		
			"/>
		<polygon fill="#EBF3FB" points="408.438,99.724 408.438,98.013 406.963,97.157 405.486,98.013 405.486,99.724 406.963,100.58 		
			"/>
		<polygon fill="#EBF3FB" points="387.623,101.428 387.623,99.716 386.146,98.86 384.671,99.716 384.671,101.428 386.146,102.283 		
			"/>
		<polygon fill="#EBF3FB" points="380.232,101.033 380.232,100.11 379.438,99.649 378.645,100.11 378.645,101.033 379.438,101.494 
					"/>
		<polygon fill="#EBF3FB" points="413.891,87.816 413.891,86.894 413.094,86.432 412.298,86.894 412.298,87.816 413.094,88.277 		
			"/>
		<g>
			<polygon fill="#EBF3FB" points="396.24,94.16 396.404,93.977 401.811,98.847 405.938,98.847 405.938,99.095 401.717,99.095 
				401.682,99.063 			"/>
		</g>
	</g>
	<g>
		<polygon fill="#EBF3FB" points="429.995,99.785 432.747,99.785 434.123,102.178 432.747,104.572 429.995,104.572 428.618,102.178 
					"/>
		<polygon fill="#EBF3FB" points="415.18,93.017 416.552,93.017 417.239,94.211 416.552,95.406 415.18,95.406 414.491,94.211 		"/>
		<polygon fill="#EBF3FB" points="421.669,101.059 423.043,101.059 423.73,102.253 423.043,103.448 421.669,103.448 
			420.981,102.253 		"/>
		<polygon fill="#EBF3FB" points="443.103,107.592 444.477,107.592 445.162,108.787 444.477,109.982 443.103,109.982 
			442.414,108.787 		"/>
		<polygon fill="#EBF3FB" points="448.24,96.456 449.614,96.456 450.301,97.651 449.614,98.847 448.24,98.847 447.554,97.651 		"/>
		<g>
			<polygon fill="#EBF3FB" points="429.912,99.839 430.077,99.73 426.377,94.021 416.677,94.021 416.677,94.221 426.269,94.221 			
				"/>
		</g>
		<g>
			<polygon fill="#EBF3FB" points="443.09,107.83 443.271,107.751 440.811,102.079 434.123,102.079 434.123,102.277 
				440.681,102.277 			"/>
		</g>
		<g>
			<polygon fill="#EBF3FB" points="440.827,102.236 444.043,97.751 448.859,97.751 448.859,97.551 443.94,97.551 440.667,102.12 			
				"/>
		</g>
		<g>
			<rect x="422.987" y="102.079" fill="#EBF3FB" width="5.631" height="0.198"/>
		</g>
	</g>
</g>
</svg>
