<?xml version="1.0" encoding="utf-8"?>
<!-- Generator: Adobe Illustrator 16.0.0, SVG Export Plug-In . SVG Version: 6.00 Build 0)  -->
<!DOCTYPE svg PUBLIC "-//W3C//DTD SVG 1.1//EN" "http://www.w3.org/Graphics/SVG/1.1/DTD/svg11.dtd">
<svg version="1.1" id="Layer_1" xmlns="http://www.w3.org/2000/svg" xmlns:xlink="http://www.w3.org/1999/xlink" x="0px" y="0px"
	 width="700px" height="100px" viewBox="0 0 700 100" enable-background="new 0 0 700 100" xml:space="preserve">
<path fill="#88D1E8" d="M700,80l-23.3-6.656c-23.299-6.781-69.897-19.906-116.495-21.688C513.606,50,467.009,60,420.411,61.656
	c-46.599,1.781-93.197-5.094-139.794-6.656c-46.598-1.563-93.196,1.563-139.794-1.656C94.224,50,47.626,40,24.327,35L1.028,30V0
	h23.299c23.299,0,69.897,0,116.496,0c46.598,0,93.196,0,139.794,0c46.598,0,93.196,0,139.794,0c46.598,0,93.195,0,139.794,0
	c46.598,0,93.196,0,116.495,0H700V80z"/>
</svg>
